<svg xmlns="http://www.w3.org/2000/svg" xmlns:xlink="http://www.w3.org/1999/xlink" width="80.966" height="75.99" viewBox="0 0 80.966 75.99">
  <defs>
    <clipPath id="clip-path">
      <rect id="Rectangle_1138" data-name="Rectangle 1138" width="65.755" height="57.727" fill="#e6e6e6"/>
    </clipPath>
  </defs>
  <g id="Group_1575" data-name="Group 1575" transform="translate(0 21.408) rotate(-19)">
    <g id="Group_1574" data-name="Group 1574" clip-path="url(#clip-path)">
      <path id="Path_1805" data-name="Path 1805" d="M0,57.637V18.631l2.645-.261a25.286,25.286,0,0,0-.02-2.815c-.156-1.377.393-1.943,1.747-1.9a15.959,15.959,0,0,0,1.952-.191c0-1.535.066-2.967-.019-4.389-.081-1.336.417-1.732,1.742-1.645A38.893,38.893,0,0,1,31.2,16.881c.421.358.842.717,1.378,1.174,1.193-1.856,2.3-3.692,3.517-5.449C39.487,7.721,43.46,3.433,48.778.575c1.84-.989,2.138-.8,2.146,1.34.008,2.208,0,4.417,0,6.555,2.808-.352,5.449-.65,8.08-1.028,1.381-.2,1.91.261,1.876,1.688-.073,3.04-.022,6.083-.022,9.37,1.128,0,2.111.066,3.081-.016,1.371-.116,1.828.405,1.815,1.8-.062,6.383-.027,12.768-.027,19.152,0,5.551-.026,11.1.02,16.654.01,1.209-.355,1.642-1.613,1.64q-31.56-.048-63.119-.026c-.272,0-.545-.033-1.016-.064M7.994,8.944a2.337,2.337,0,0,0-.2.582q-.023,17.3-.044,34.6c0,.908.418,1.095,1.206,1.152a38.3,38.3,0,0,1,22.173,9.233,6.3,6.3,0,0,0,.857.5,7.762,7.762,0,0,0,.1-.8c0-11.2.02-22.4-.031-33.6a2.789,2.789,0,0,0-.879-1.8,37.226,37.226,0,0,0-12.206-7.589A33.317,33.317,0,0,0,7.994,8.944m25.567,44.8c.329-.227.437-.266.489-.342.309-.459.6-.928.908-1.391,3.46-5.3,7.506-10.044,13.064-13.258a2.445,2.445,0,0,0,1.45-2.452c-.048-10.869-.026-21.738-.032-32.608,0-.517-.07-1.034-.124-1.776-1,.637-1.807,1.1-2.566,1.639C41.417,7.317,37.623,12.4,34.441,17.987a6.648,6.648,0,0,0-.843,3.105c-.066,8.6-.037,17.191-.037,25.786v6.87m25.72-8.591V8.77l-8.356,1.252v2.033q0,12.558.006,25.115c0,.913-.007,1.684-1.025,2.205C44.159,42.318,40.058,47,36.531,52.261a10.9,10.9,0,0,0-.571,1.245,42.7,42.7,0,0,1,23.321-8.349m4.9,11.069V20.063H60.859v2.07c0,7.541-.023,15.083.022,22.625.008,1.331-.388,1.852-1.785,1.9a37.765,37.765,0,0,0-16.7,4.532c-2.532,1.368-4.888,3.061-7.323,4.606l.235.425Zm-33.706.014a4.524,4.524,0,0,0-.49-.442c-.292-.159-.591-.3-.89-.449A43.514,43.514,0,0,0,4.79,51.465C3.2,51.64,2.908,51.157,2.9,49.73c-.026-7.49-.136-14.98-.213-22.47-.021-2.053-.01-4.106-.045-6.159-.018-1.04-.049-1.039-1.145-.9V56.24ZM25,52.049C21.22,49.3,13.893,46.928,8.888,46.69c-2.564-.122-2.564-.122-2.564-2.759q0-13.56,0-27.12V14.949l-2.036.21V50.044A48.85,48.85,0,0,1,25,52.049" transform="translate(0 0)" fill="#e6e6e6"/>
    </g>
  </g>
</svg>
