<svg id="Group_1001" data-name="Group 1001" xmlns="http://www.w3.org/2000/svg" xmlns:xlink="http://www.w3.org/1999/xlink" width="21.482" height="19.652" viewBox="0 0 21.482 19.652">
  <defs>
    <clipPath id="clip-path">
      <rect id="Rectangle_782" data-name="Rectangle 782" width="21.482" height="19.652" fill="#fff"/>
    </clipPath>
  </defs>
  <g id="Group_1000" data-name="Group 1000" clip-path="url(#clip-path)">
    <path id="Path_994" data-name="Path 994" d="M21.482,4.624c-.14.539-.286,1.076-.42,1.616Q20.3,9.32,19.539,12.4a.834.834,0,0,1-.951.745H6.358a.831.831,0,0,1-.958-.758Q4.145,7.143,2.893,1.9C2.823,1.6,2.824,1.6,2.517,1.6c-.58,0-1.161.007-1.741,0A.8.8,0,0,1,.582.035,1.189,1.189,0,0,1,.892,0Q2.13,0,3.368,0a.8.8,0,0,1,.884.69c.222.909.438,1.819.656,2.728.016.067.035.134.059.221H20.487a.871.871,0,0,1,.654.16,3.084,3.084,0,0,1,.341.488Zm-1.835.636H5.348l1.5,6.277c.061,0,.1.006.144.006q5.463,0,10.926,0c.138,0,.188-.042.221-.178.369-1.512.746-3.022,1.12-4.532.129-.52.257-1.041.389-1.576" transform="translate(0 0)" fill="#fff"/>
    <path id="Path_995" data-name="Path 995" d="M93.1,274.9a2.675,2.675,0,1,1-2.688-2.666A2.673,2.673,0,0,1,93.1,274.9m-1.609.006a1.069,1.069,0,0,0-2.138-.009,1.069,1.069,0,1,0,2.138.009" transform="translate(-83.137 -257.926)" fill="#fff"/>
    <path id="Path_996" data-name="Path 996" d="M272.786,274.907a2.674,2.674,0,1,1,2.683,2.67,2.669,2.669,0,0,1-2.683-2.67m1.606-.007a1.07,1.07,0,1,0,1.065-1.066,1.076,1.076,0,0,0-1.065,1.066" transform="translate(-258.451 -257.924)" fill="#fff"/>
  </g>
</svg>
