<svg xmlns="http://www.w3.org/2000/svg" xmlns:xlink="http://www.w3.org/1999/xlink" width="57.92" height="59.455" viewBox="0 0 57.92 59.455">
  <defs>
    <clipPath id="clip-path">
      <rect id="Rectangle_848" data-name="Rectangle 848" width="57.92" height="59.455" fill="#7569de"/>
    </clipPath>
  </defs>
  <g id="Group_1117" data-name="Group 1117" clip-path="url(#clip-path)">
    <path id="Path_1026" data-name="Path 1026" d="M47.634,11.791c-.466-2.925-.964-6.05-1.482-9.3L16.933,7.177c.742,4.643,1.466,9.178,2.222,13.91,3.554-.567,6.968-1.109,10.381-1.656q3.819-.611,7.635-1.232c.982-.16,2.016-.047,1.974,1.114-.02.533-.953,1.38-1.579,1.491-6.179,1.1-12.381,2.071-18.574,3.1-1.441.239-2.163-.228-2.395-1.756-.778-5.128-1.65-10.243-2.523-15.356-.285-1.67.76-1.991,2.029-2.192Q26.983,2.879,37.859,1.147c1.439-.228,2.9-.366,4.314-.7,6.06-1.42,11.158.666,15.78,4.31,2.5,1.974,4.85,4.121,8.087,4.905,1.123.272,1.428,1.109,1,2.229q-2.2,5.7-4.338,11.418c-.433,1.153-1.161,1.619-2.343,1.108A35.14,35.14,0,0,1,54.572,21.8a11.144,11.144,0,0,0-10.2-1.444c-1.127.356-2.4,1.147-3.54-.238a6.4,6.4,0,0,1-1.368-5.479c.079-.43.827-.9,1.355-1.057,2.181-.639,4.4-1.164,6.812-1.787m1.757-8.725-.343.45c.468,3.008.951,6.014,1.4,9.025.282,1.887-.072,2.2-1.961,2.354-1.82.148-3.633.433-5.437.735-1.252.21-1.149,1.148-.63,1.864.215.3,1.109.315,1.607.167,4.081-1.209,7.929-.954,11.472,1.595a4.459,4.459,0,0,0,.657.306c.581-1.52,1.152-2.9,1.639-4.313.642-1.861,2.071-4.009,1.588-5.545-.5-1.6-2.776-2.772-4.458-3.849a56.429,56.429,0,0,0-5.534-2.788M58.583,20.8l1.878.744L64.154,11.8l-1.888-.64L58.583,20.8" transform="translate(-9.305 0)" fill="#7569de"/>
    <path id="Path_1027" data-name="Path 1027" d="M8.543,137.833c-.492,2.559-.492,2.559-2.979,2.561-1.234,0-2.469-.024-3.7.006C.606,140.43,0,139.892,0,138.609q.027-7.368,0-14.735c-.007-1.291.614-1.829,1.844-1.826,1.514,0,3.029.014,4.544-.005,1.191-.015,1.913.419,2.012,1.712a1.346,1.346,0,0,0,.631.98c3.25,1.349,6.475,2.937,10.152,2.385,1.82-.273,3.61-.767,5.4-1.209,2.7-.666,3.935-.075,5.12,2.51.089.195.208.376.509.91,2.713-.9,5.5-1.68,8.167-2.754,2.234-.9,3.4-.793,4.638,1.012,1.075,1.563.677,2.86-1,4.494-2.931,2.853-6.8,3.783-10.42,5.2-2.5.975-5.143,1.558-7.668,2.466a8.461,8.461,0,0,1-4.917.23c-3.44-.773-6.908-1.422-10.468-2.142m-.2-10.356c0,2.411-.037,4.58.039,6.746a1.347,1.347,0,0,0,.837.958c6.62,1.413,13.244,3.68,19.9.113.582-.311,1.3-.362,1.909-.633,3.046-1.352,6.461-1.979,8.955-4.421a5.263,5.263,0,0,0,.695-1.161,5.575,5.575,0,0,0-1.3.107c-1.8.585-3.573,1.24-5.368,1.836-1.527.506-3.055,1.021-4.609,1.434-3.071.815-6.148,1.619-9.255,2.277-.46.1-1.095-.626-1.649-.969a14.684,14.684,0,0,1,1.313-1.6c.2-.186.652-.08.977-.156,1.847-.433,3.7-.835,5.526-1.362.38-.11.62-.7.925-1.067a9.021,9.021,0,0,0-1.552-1.161c-.27-.128-.747.138-1.118.263a18.826,18.826,0,0,1-15-.8,10.782,10.782,0,0,0-1.229-.4m-2.84-2.612H2.817v12.792H5.506Z" transform="translate(0 -80.945)" fill="#7569de"/>
    <path id="Path_1028" data-name="Path 1028" d="M53.557,79.77H48.2c0,2.452.005,4.833,0,7.213-.006,2.129-.82,2.614-2.694,1.506a2.01,2.01,0,0,0-2.422-.033c-2,1.266-2.779.8-2.824-1.622-.043-2.326-.009-4.654-.009-7.056H34.7v1.576c0,3.906-.011,7.812.008,11.718,0,.983-.156,1.908-1.32,1.938S32,94.15,32,93.146c.017-4.743.026-9.486,0-14.229-.009-1.345.551-1.916,1.91-1.911q10.262.037,20.525,0c1.273,0,1.831.558,1.827,1.821q-.026,8.537,0,17.075c0,1.005-.273,1.973-1.4,1.774a2.25,2.25,0,0,1-1.237-1.739c-.1-4.741-.057-9.485-.057-14.228V79.77m-8.172,5.24V79.788l-2.392.143V85.01Z" transform="translate(-21.221 -51.074)" fill="#7569de"/>
    <path id="Path_1029" data-name="Path 1029" d="M53.717,24.806a5.443,5.443,0,1,1,5.359,5.533,5.46,5.46,0,0,1-5.359-5.533m5.527,2.815A2.745,2.745,0,0,0,61.9,24.767a2.827,2.827,0,0,0-2.913-2.63,2.746,2.746,0,0,0,.255,5.485" transform="translate(-35.628 -12.889)" fill="#7569de"/>
  </g>
</svg>
