<svg xmlns="http://www.w3.org/2000/svg" width="71.072" height="122.442" viewBox="0 0 71.072 122.442">
  <g id="Group_1567" data-name="Group 1567" opacity="0.33">
    <path id="Path_917" data-name="Path 917" d="M39.1,78.693l-.075,0a.58.58,0,0,1-.361-.246c-.962-1.576-.123-34.707-.045-34.927s.318-.892,21.42-10.076a.43.43,0,0,1,.428.046c.209.152.6.431,1.072,17.483.177,6.336.414,17.058.017,17.694-.53.843-21.1,10.03-22.457,10.03m.33-34.816c-.29,2.1-.607,30.636-.073,33.884,2.682-.792,20.135-8.553,21.448-9.561.368-2.027-.392-29.852-.893-33.753-7.609,3.318-19.349,8.569-20.482,9.431" transform="translate(9.302 8.133)" fill="#f1156b"/>
    <path id="Path_918" data-name="Path 918" d="M37.142,73.916c-2.278,0-30.657-5.669-31.631-6.318a.51.51,0,0,1-.2-.485c.241-1.234,16.65-8.073,25.38-9.873a.5.5,0,0,1,.122-.007c8.134.639,27.374,4.682,28.008,6.169a.593.593,0,0,1-.071.527.4.4,0,0,1-.15.118c-1.7.81-3.769,1.82-5.949,2.886C44.427,70.948,38.51,73.8,37.262,73.911l-.121,0M6.609,67.073c4.352,1.195,28.565,5.972,30.533,5.972v.435l.041-.436c1.186-.107,8.891-3.871,15.084-6.894,1.921-.939,3.758-1.835,5.328-2.589C54.626,62.308,39.518,58.8,30.8,58.106c-8.21,1.707-21.364,7.32-24.195,8.967" transform="translate(1.291 13.935)" fill="#f1156b"/>
    <path id="Path_919" data-name="Path 919" d="M37.279,106.634c-1.639,0-29.159-6.807-30.977-8.624-1.685-1.685-1.084-27.5-.945-32.659a.431.431,0,0,1,.5-.418c1.032.163,25.391,4.023,31.55,6.262a.434.434,0,0,1,.284.363c.162,1.5.254,22.563.057,34.647a.437.437,0,0,1-.405.427h-.066M6.213,65.871c-.3,11.751-.373,30.293.706,31.525,1.266,1.266,25.993,7.8,29.967,8.333.19-12.27.092-31.067-.041-33.809-6-2.051-27.133-5.486-30.632-6.048" transform="translate(1.252 15.809)" fill="#f1156b"/>
    <path id="Path_920" data-name="Path 920" d="M31.2,107.334a.613.613,0,0,1-.068,0,.582.582,0,0,1-.362-.245c-.957-1.568-.124-34.707-.045-34.927s.321-.892,21.422-10.076a.435.435,0,0,1,.43.047c.208.15.592.43,1.067,16.048.178,5.8.413,15.628.016,16.26-.6.964-21.382,12.9-22.46,12.9m.332-34.816c-.285,2.1-.6,30.432-.076,33.848,2.754-1.15,20.579-11.416,21.489-12.417.372-1.329-.39-27.118-.92-30.863-7.61,3.319-19.356,8.573-20.493,9.433" transform="translate(7.381 15.107)" fill="#f1156b"/>
    <path id="Path_921" data-name="Path 921" d="M26.547,94.911a.451.451,0,0,1-.1-.011l-15-3.523a.439.439,0,0,1-.336-.385L10.69,86.1a.436.436,0,0,1,.334-.461,16.033,16.033,0,0,0,3.822-1.495,14.05,14.05,0,0,0,3.408-2.475,3.814,3.814,0,0,0,1.309-2.534,2.594,2.594,0,0,0-.408-1.386,1.473,1.473,0,0,0-.907-.75,1.051,1.051,0,0,0-1.1.407,2.743,2.743,0,0,0-.669,1.619.435.435,0,0,1-.6.358l-4.81-2.029a.435.435,0,0,1-.265-.423,7.407,7.407,0,0,1,1.15-3.764,5.572,5.572,0,0,1,2.834-2.21,6.927,6.927,0,0,1,3.947-.112,8.76,8.76,0,0,1,3.732,1.88,9.226,9.226,0,0,1,2.458,3.356,10.447,10.447,0,0,1,.851,4.212c-.012,2.737-1.326,5.318-3.9,7.685l4.238.933a.434.434,0,0,1,.339.379l.519,5.009a.446.446,0,0,1,.037.178.428.428,0,0,1-.446.435h-.01M11.957,90.6l14.095,3.311-.439-4.22-4.771-1.05a.436.436,0,0,1-.187-.76c2.808-2.348,4.238-4.9,4.249-7.594a9.581,9.581,0,0,0-.778-3.862A8.356,8.356,0,0,0,21.9,73.383a7.892,7.892,0,0,0-3.364-1.691,6.048,6.048,0,0,0-3.454.083,4.724,4.724,0,0,0-2.4,1.87,6.432,6.432,0,0,0-.985,3.027l4.016,1.694a3.509,3.509,0,0,1,.785-1.537,1.913,1.913,0,0,1,1.956-.679A2.331,2.331,0,0,1,19.9,77.3a3.473,3.473,0,0,1,.532,1.842,4.632,4.632,0,0,1-1.558,3.142,14.955,14.955,0,0,1-3.62,2.632,17.519,17.519,0,0,1-3.666,1.481Z" transform="translate(2.603 17.193)" fill="#f1156b"/>
    <path id="Path_922" data-name="Path 922" d="M45.034,45.274c-2.277,0-30.66-5.669-31.633-6.319a.5.5,0,0,1-.2-.484c.24-1.235,16.647-8.073,25.38-9.873a.392.392,0,0,1,.121-.007c8.134.639,27.372,4.682,28.008,6.168a.6.6,0,0,1-.072.527.431.431,0,0,1-.149.118c-1.69.807-3.754,1.814-5.926,2.875C52.327,42.3,46.4,45.156,45.152,45.27l-.118,0M14.5,38.43c4.357,1.2,28.569,5.974,30.534,5.974v.435l.041-.436c1.184-.107,8.9-3.877,15.1-6.906,1.912-.933,3.742-1.827,5.3-2.578-2.969-1.253-18.075-4.76-26.791-5.455-8.208,1.706-21.362,7.32-24.193,8.967" transform="translate(3.213 6.961)" fill="#f1156b"/>
    <path id="Path_923" data-name="Path 923" d="M45.134,77.993c-1.685,0-28.869-5.092-30.66-6.884-1.682-1.682-1.337-28.947-1.251-34.4a.434.434,0,0,1,.157-.326.417.417,0,0,1,.347-.1c1.035.162,25.392,4.023,31.552,6.262a.437.437,0,0,1,.282.364c.159,1.523.252,22.589.055,34.646a.433.433,0,0,1-.4.427l-.078,0M14.086,37.229c-.187,12.409-.075,32,1.007,33.267,1.322,1.323,25.678,6.225,29.661,6.6.188-12.246.092-31.067-.04-33.82-5.994-2.051-27.114-5.486-30.628-6.05" transform="translate(3.199 8.835)" fill="#f1156b"/>
    <path id="Path_924" data-name="Path 924" d="M29.547,65.679a10.748,10.748,0,0,1-2.421-.3,9.759,9.759,0,0,1-4.018-1.9,10.883,10.883,0,0,1-2.79-3.661.443.443,0,0,1,.05-.461l2.752-3.512a.4.4,0,0,1,.383-.164.431.431,0,0,1,.346.236,7.5,7.5,0,0,0,1.547,2.121,4.024,4.024,0,0,0,1.815,1,1.7,1.7,0,0,0,1.481-.205,1.536,1.536,0,0,0,.545-1.312,2.638,2.638,0,0,0-.567-1.645,2.3,2.3,0,0,0-1.35-.931,3.292,3.292,0,0,0-1.1-.088,3.768,3.768,0,0,0-1.119.341.445.445,0,0,1-.354,0,.433.433,0,0,1-.24-.261L23.171,51a.436.436,0,0,1,.179-.506l2.962-1.879-5.152-1.128a.435.435,0,0,1-.343-.425l.016-4.815A.431.431,0,0,1,21,41.906a.44.44,0,0,1,.367-.083l13.5,3.1a.437.437,0,0,1,.337.415l.093,4.671a.439.439,0,0,1-.246.4l-2.92,1.406a8.813,8.813,0,0,1,1.605,1.666,11.485,11.485,0,0,1,1.577,2.942,9.317,9.317,0,0,1,.581,3.2,6.07,6.07,0,0,1-1.153,3.728,5.645,5.645,0,0,1-3.178,2.068,7.92,7.92,0,0,1-2.014.251m-8.323-5.995a9.759,9.759,0,0,0,2.435,3.127,8.882,8.882,0,0,0,3.662,1.723,8.346,8.346,0,0,0,4.019.051,4.778,4.778,0,0,0,2.7-1.748,5.214,5.214,0,0,0,.979-3.208,8.458,8.458,0,0,0-.528-2.9,10.57,10.57,0,0,0-1.459-2.718,7.32,7.32,0,0,0-1.993-1.884.439.439,0,0,1-.206-.393.431.431,0,0,1,.246-.369l3.339-1.61L34.339,45.7,21.7,42.792l-.014,3.918,5.842,1.278a.434.434,0,0,1,.139.792l-3.565,2.263,1.072,3.193a4.034,4.034,0,0,1,.939-.231,4.132,4.132,0,0,1,1.4.1,3.188,3.188,0,0,1,1.848,1.256,3.537,3.537,0,0,1,.741,2.171,2.38,2.38,0,0,1-.887,2,2.548,2.548,0,0,1-2.206.362,4.88,4.88,0,0,1-2.208-1.212A7.79,7.79,0,0,1,23.4,56.91Z" transform="translate(4.937 10.181)" fill="#f1156b"/>
    <path id="Path_925" data-name="Path 925" d="M32.288,16.828c-2.3,0-30.933-5.719-31.917-6.374a.511.511,0,0,1-.2-.485C.414,8.723,16.968,1.825,25.777.007A.553.553,0,0,1,25.9,0C34.1.644,53.515,4.723,54.16,6.224a.6.6,0,0,1-.072.526.443.443,0,0,1-.152.119c-1.7.812-3.772,1.824-5.955,2.89-8.32,4.065-14.311,6.951-15.57,7.064l-.123,0m-30.82-6.9c4.368,1.2,28.829,6.028,30.82,6.028v.436l.042-.438c1.2-.108,9-3.918,15.27-6.98,1.924-.939,3.764-1.839,5.337-2.594C49.962,5.119,34.7,1.575,25.893.874,17.593,2.6,4.307,8.273,1.468,9.929" transform="translate(0.04 0)" fill="#f1156b"/>
    <path id="Path_926" data-name="Path 926" d="M32.428,49.845h0c-1.651,0-29.423-6.869-31.256-8.7C-.527,39.443.08,13.394.219,8.189a.436.436,0,0,1,.5-.418c1.043.164,25.621,4.06,31.837,6.318a.44.44,0,0,1,.285.363c.16,1.507.254,22.756.056,34.963a.436.436,0,0,1-.4.428h-.07M1.076,8.709C.772,20.572.7,39.292,1.789,40.53c1.277,1.276,26.246,7.876,30.247,8.411.193-12.4.093-31.372-.04-34.128-6.052-2.068-27.4-5.54-30.921-6.1" transform="translate(0 1.89)" fill="#f1156b"/>
    <path id="Path_927" data-name="Path 927" d="M26.292,50.553a.631.631,0,0,1-.068,0,.571.571,0,0,1-.361-.245c-.967-1.576-.126-35.022-.045-35.244s.318-.9,21.613-10.166a.433.433,0,0,1,.429.047c.208.152.6.434,1.078,16.193.177,5.853.419,15.769.019,16.409-.611.972-21.58,13.009-22.665,13.009m.333-35.134c-.291,2.114-.611,30.74-.076,34.166,2.764-1.151,20.77-11.521,21.691-12.533.377-1.344-.394-27.393-.931-31.156-7.681,3.35-19.543,8.656-20.684,9.523" transform="translate(6.185 1.182)" fill="#f1156b"/>
    <path id="Path_928" data-name="Path 928" d="M18.315,38.278a.518.518,0,0,1-.088-.009L12.37,37.032a.434.434,0,0,1-.346-.427l.01-14.715-3.423-.724a.435.435,0,0,1-.346-.425l0-5.729a.434.434,0,0,1,.526-.425l5.831,1.23,3.835,1.226a.435.435,0,0,1,.3.415L18.75,37.843a.434.434,0,0,1-.435.435m-5.42-2.024,4.986,1.052.011-19.53L14.4,16.657,9.139,15.549l0,4.838,3.425.724a.435.435,0,0,1,.347.425Z" transform="translate(2.013 3.549)" fill="#f1156b"/>
  </g>
</svg>
