<svg xmlns="http://www.w3.org/2000/svg" width="29.091" height="21.095" viewBox="0 0 29.091 21.095">
  <g id="Group_707" data-name="Group 707" style="mix-blend-mode: normal;isolation: isolate">
    <path id="Path_525" data-name="Path 525" d="M43.07,82.7H20.065a3.047,3.047,0,0,0-3.043,3.043v15.009a3.047,3.047,0,0,0,3.043,3.043H43.07a3.047,3.047,0,0,0,3.043-3.043V85.743A3.046,3.046,0,0,0,43.07,82.7ZM37.66,93.243l7.237-5.68v12.7ZM20.065,83.917H43.07A1.828,1.828,0,0,1,44.9,85.743v.273L33.186,95.208a2.433,2.433,0,0,1-3,0L18.239,86.014v-.271a1.828,1.828,0,0,1,1.826-1.826Zm5.626,9.364-7.452,7.011V87.55Zm17.379,9.3H20.065a1.826,1.826,0,0,1-1.554-.869l8.158-7.675,2.774,2.134a3.648,3.648,0,0,0,4.493,0L36.693,94l7.934,7.7A1.827,1.827,0,0,1,43.07,102.578Z" transform="translate(-17.022 -82.7)" fill="#fff"/>
  </g>
</svg>
