<svg id="Group_1548" data-name="Group 1548" xmlns="http://www.w3.org/2000/svg" width="40.936" height="40.936" viewBox="0 0 40.936 40.936">
  <path id="Path_1794" data-name="Path 1794" d="M33.626,40.936H7.31A7.31,7.31,0,0,1,0,33.626V7.31A7.31,7.31,0,0,1,7.31,0H33.626a7.31,7.31,0,0,1,7.31,7.31V33.626a7.31,7.31,0,0,1-7.31,7.31" fill="#3e5c9a"/>
  <path id="Path_1795" data-name="Path 1795" d="M19.689,34.124h4.982V21.647h3.477l.37-4.178H24.671V15.09c0-.985.2-1.374,1.151-1.374h2.7V9.38h-3.45c-3.707,0-5.379,1.633-5.379,4.758v3.331H17.1V21.7h2.592Z" transform="translate(-2.34 -1.284)" fill="#fff"/>
</svg>
