<svg xmlns="http://www.w3.org/2000/svg" width="181.161" height="89.878" viewBox="0 0 181.161 89.878">
  <g id="Group_988" data-name="Group 988" transform="translate(-3107 -327)">
    <path id="Path_953" data-name="Path 953" d="M36.61,42.836A4.078,4.078,0,0,1,35.3,47.143c-.642.586-1.322,1.13-2.077,1.772,1.154-.078,2.192-.137,3.228-.219,1.345-.108,2.688-.222,4.025-.42a5.883,5.883,0,0,0,3.877-2.291c.336-.426.7-.827,1.047-1.248a.378.378,0,0,1,.535-.1,2.988,2.988,0,0,1,1.619,4.293,11.02,11.02,0,0,1-2.185,3c2.94,1.576,7.356-.678,7.956-4.043.047,0,.115-.011.141.015a6.465,6.465,0,0,1,1.923,6.37,3,3,0,0,1-3.356,2.449,22.27,22.27,0,0,1-6.079-1.336,60.2,60.2,0,0,0-8.881-2.1,24.5,24.5,0,0,0-18.581,4.545c-.591.435-1.177.876-1.875,1.4A11.444,11.444,0,0,1,18.729,55a8.629,8.629,0,0,1,1.973-1.72,109.422,109.422,0,0,1,10.979-6.163,10.981,10.981,0,0,0,4.122-3.09c.278-.372.521-.77.807-1.2" transform="translate(3097.676 302.968)" fill="#bf1220"/>
    <path id="Path_954" data-name="Path 954" d="M195.5,128.584a32.415,32.415,0,0,0-.175-3.67c-.045-.4-.028-.569.489-.5a16.1,16.1,0,0,0,4.194-.009c.354-.043.377.047.347.335a63.229,63.229,0,0,0-.187,7.4c0,.1,0,.21,0,.316.03,1.052.031,1.054-1,1.323a29.591,29.591,0,0,1-7.933,1.134,14.354,14.354,0,0,1-8.464-2.532,9.794,9.794,0,0,1-4.2-7.917,12.17,12.17,0,0,1,2.741-8.751,11.743,11.743,0,0,1,6.838-3.828,16.929,16.929,0,0,1,11.413,1.31c.326.167.458.3.316.7-.276.79-.454,1.614-.688,2.419-.048.164.02.407-.245.462s-.415-.086-.564-.282a7.285,7.285,0,0,0-6.044-2.966,7.383,7.383,0,0,0-6.774,3.887,11.916,11.916,0,0,0-.713,10.866,7.356,7.356,0,0,0,7.926,4.541,14.582,14.582,0,0,0,2.175-.349.63.63,0,0,0,.553-.694c-.006-1.069,0-2.138,0-3.207" transform="translate(3006.825 264.467)" fill="#bf1220"/>
    <path id="Path_955" data-name="Path 955" d="M92.353,50.678a12.315,12.315,0,0,0,3.513.964,4.924,4.924,0,0,0,5.176-2.983,14.171,14.171,0,0,0,1.057-4.475c.362-3.024.638-6.062,1.245-9.051a11.14,11.14,0,0,1,8.286-8.993c4.547-1.355,9.182-2.374,13.8-3.459A48.662,48.662,0,0,0,135.91,19.2a30.055,30.055,0,0,0,7.88-5.532c.178-.175.317-.45.706-.316a33.406,33.406,0,0,1-2.238,2.607,36.17,36.17,0,0,1-14.881,9.353c-3.258,1.14-6.572,2.047-9.917,2.891-6.4,1.614-10.233,5.846-11.88,12.135-.709,2.707-1.186,5.472-2,8.155a9.691,9.691,0,0,1-2.65,4.286c-2.309,2.184-5.034,2.054-7.229-.281a8.658,8.658,0,0,1-1.352-1.815" transform="translate(3055.187 319.532)" fill="#bf1220"/>
    <path id="Path_956" data-name="Path 956" d="M326.71,120.335c.045-2.488.05-4.977-.073-7.463-.017-.333.071-.392.364-.36a19.809,19.809,0,0,0,4.617,0c.453-.057.384.193.358.46a110.271,110.271,0,0,0-.418,11.128,19.158,19.158,0,0,0,.616,5.356,4.654,4.654,0,0,0,4.528,3.7,8.868,8.868,0,0,0,2.618-.054,4.466,4.466,0,0,0,3.294-2.885,15.313,15.313,0,0,0,.984-5.289c.171-3.644.057-7.286-.111-10.927-.019-.4-.028-.806-.057-1.207-.017-.235.065-.312.3-.271a7.705,7.705,0,0,0,2.72,0c.4-.072.273.219.258.391-.156,1.833-.236,3.67-.285,5.506-.068,2.54-.075,5.08-.137,7.619a13.863,13.863,0,0,1-.595,3.669,7.409,7.409,0,0,1-5.961,5.495,14.778,14.778,0,0,1-7.681-.39,7.47,7.47,0,0,1-5.332-7.223c-.041-2.417-.008-4.836-.008-7.254" transform="translate(2923.75 263.885)" fill="#bf1220"/>
    <path id="Path_957" data-name="Path 957" d="M106.841,130.193c.064,1.486.119,2.973.2,4.459.015.279.005.417-.335.379a20.938,20.938,0,0,0-4.669,0c-.33.037-.365-.094-.345-.372.355-5.2.254-10.4.237-15.6-.006-2.081-.065-4.166-.24-6.243-.02-.237,0-.36.29-.325,2.8.348,5.6-.128,8.4,0a12.358,12.358,0,0,1,2.136.261,5.437,5.437,0,0,1,4.372,6.023c-.277,4.037-2.867,5.869-6.4,6.349a21.98,21.98,0,0,1-3.255.111c-.344,0-.442.09-.438.436.019,1.506.008,3.013.008,4.519h.038m.019-11.174H106.8c0,1.383,0,2.766,0,4.149,0,.148-.092.334.2.382a4.167,4.167,0,0,0,4.308-2.519,6.956,6.956,0,0,0,.019-4.532,2.887,2.887,0,0,0-2.406-2.079c-.5-.081-1.016-.006-1.52-.055-.459-.045-.561.154-.557.56.014,1.365.005,2.73.005,4.094" transform="translate(3049.954 263.901)" fill="#bf1220"/>
    <path id="Path_958" data-name="Path 958" d="M255.1,134.863l-2.712-.135a15.324,15.324,0,0,0-2.413.122c-.473.052-.61-.119-.744-.535-.6-1.881-1.256-3.745-1.872-5.622a.635.635,0,0,0-.687-.526q-3.286-.109-6.571-.013a.677.677,0,0,0-.712.515c-.7,1.9-1.361,3.819-1.886,5.778-.094.351-.242.46-.577.383a8.143,8.143,0,0,0-2.69.032,2.228,2.228,0,0,1,.3-.852c3.052-7.117,6.032-14.262,8.8-21.495.108-.282.2-.438.557-.334a3.125,3.125,0,0,0,1.716,0c.358-.1.439.046.549.332,1.526,4,3.051,8,4.605,11.994,1.3,3.338,2.66,6.653,4.144,9.914.057.125.109.251.19.439m-11.542-16.254c-.069.045-.112.057-.123.083-1.049,2.366-1.973,4.782-2.868,7.209-.1.272,0,.325.257.324,1.736-.007,3.473-.012,5.209,0,.414,0,.3-.184.219-.416-.546-1.494-1.079-2.993-1.632-4.484-.337-.908-.7-1.805-1.061-2.718" transform="translate(2975.584 264.081)" fill="#bf1220"/>
    <path id="Path_959" data-name="Path 959" d="M143.366,123.749c0-3.626.049-7.254-.237-10.873-.033-.426.18-.4.461-.4,1.928.036,3.852.165,5.782.145,2-.02,4,.006,5.992-.128.31-.021.476-.016.4.4a5.572,5.572,0,0,0,.007,2.04c.076.41-.079.415-.395.393-1.573-.106-3.147-.2-4.72-.291-.629-.037-1.261-.043-1.889-.092-.284-.022-.364.072-.379.342-.118,2.153-.126,4.307-.126,6.463,0,.336.184.312.4.3,2.153-.08,4.307-.145,6.459-.249.443-.021.607.048.494.518a3.9,3.9,0,0,0,0,1.772c.085.382.024.555-.445.513-2.13-.191-4.268-.238-6.405-.278-.419-.008-.527.121-.526.52.009,2.383-.035,4.765.032,7.148.013.464.121.617.62.6,2.19-.069,4.377-.149,6.554-.412.25-.03.38-.022.324.315a7.036,7.036,0,0,0,0,2.251c.045.283-.023.312-.291.3-3.293-.18-6.59-.162-9.885-.119-.7.009-1.4.047-2.1.1-.308.025-.392-.05-.367-.363.29-3.637.233-7.282.237-10.926" transform="translate(3026.704 263.898)" fill="#bf1220"/>
    <path id="Path_960" data-name="Path 960" d="M290.813,134.873A10.252,10.252,0,0,1,286,133.731a.5.5,0,0,1-.294-.7,23.484,23.484,0,0,0,.775-3.372c.033-.219.075-.392.378-.385a.383.383,0,0,1,.431.338c.855,3.251,4.446,3.746,6.482,2.762a3.21,3.21,0,0,0,.6-5.332,14.706,14.706,0,0,0-3.3-1.921,19.343,19.343,0,0,1-2.94-1.724c-3.526-2.593-3.015-8.636.712-10.782a8.926,8.926,0,0,1,9.253.092.535.535,0,0,1,.281.792c-.3.782-.516,1.6-.779,2.394-.058.175-.033.414-.361.415-.3,0-.344-.188-.42-.375a3.97,3.97,0,0,0-4.987-2.267,2.885,2.885,0,0,0-1.121,5.061,12.285,12.285,0,0,0,2.964,1.772c.94.466,1.873.94,2.78,1.471,4.644,2.721,3.835,9.37-.438,11.677a10.924,10.924,0,0,1-5.2,1.225" transform="translate(2946.734 264.521)" fill="#bf1220"/>
    <path id="Path_961" data-name="Path 961" d="M388.306,111.506a9.179,9.179,0,0,1,5.071,1.25c.371.232.482.418.3.861-.307.759-.513,1.56-.764,2.342-.059.185-.037.414-.356.422-.291.008-.335-.171-.418-.367a3.973,3.973,0,0,0-5.039-2.262,2.889,2.889,0,0,0-1.114,5.014,11.27,11.27,0,0,0,2.907,1.762,32.909,32.909,0,0,1,2.963,1.575c4.54,2.794,3.584,9.027-.039,11.316a10.41,10.41,0,0,1-6.118,1.511,10.14,10.14,0,0,1-4.2-1.017c-.446-.221-.6-.447-.428-.967a22.681,22.681,0,0,0,.736-3.166c.038-.223.033-.438.381-.431.306.006.357.153.431.4a4.633,4.633,0,0,0,6.714,2.58,3.217,3.217,0,0,0,.618-4.953,9.435,9.435,0,0,0-2.716-1.764,32.555,32.555,0,0,1-3.19-1.712,6.164,6.164,0,0,1-2.9-6.355,6.439,6.439,0,0,1,4.529-5.589,7.134,7.134,0,0,1,2.633-.449" transform="translate(2893.247 264.445)" fill="#bf1220"/>
    <path id="Path_962" data-name="Path 962" d="M62.909,113.5c-.237,3.093-2.021,4.086-4.243,3.812-2.888-.356-5.738-.945-8.612-1.382-1.528-.232-3.07-.272-4.607-.385-.449-.033-.347.278-.415.495-.086.273.047.343.31.388,2.347.4,4.691.82,7.036,1.232.069.012.155,0,.2.033.145.106.5-.083.448.281s-.325.151-.491.13c-2.172-.286-4.341-.583-6.511-.878-.2-.028-.434-.119-.534.157-.088.244.165.281.285.369,2.093,1.531,4.2,3.046,6.287,4.582a1.392,1.392,0,0,0,1.474.172,1.942,1.942,0,0,1,2.759.916,15.335,15.335,0,0,1,1.294,3.2c.069.2.032.258-.186.307a6.2,6.2,0,0,1-4.3-.4,13.1,13.1,0,0,1-1.931-.937,1.087,1.087,0,0,0-.749-.168,2.9,2.9,0,0,1-2.639-1.132c-.684-.886-1.285-1.837-1.975-2.718a51.445,51.445,0,0,0-3.669-3.834,3.282,3.282,0,0,1-1.089-2.782,2.946,2.946,0,0,1,2.339-2.542c1.346-.382,2.708-.712,4.071-1.025.388-.089.471-.205.356-.587a16.139,16.139,0,0,1-.365-3.438,6.918,6.918,0,0,0-5.645-6.539,14.779,14.779,0,0,0-2.8-.306,4.732,4.732,0,0,1,2.532-.592,7.587,7.587,0,0,1,6.748,4.571,4.617,4.617,0,0,1,.317,1.693c-.007,1.455.023,2.911-.015,4.365-.015.528.144.592.6.47.693-.184,1.4-.316,2.1-.467.162-.035.375-.151.424.119.043.236-.2.2-.33.24-1.875.622-3.755,1.234-5.63,1.856-.165.055-.42.036-.414.317s.26.24.429.287c3.2.894,6.373,1.9,9.639,2.543a9.733,9.733,0,0,0,3.707.142,5.8,5.8,0,0,0,3.789-2.564" transform="translate(3085.115 270.935)" fill="#bf1220"/>
    <path id="Path_963" data-name="Path 963" d="M14.525,88.453a3.406,3.406,0,0,1-.573,4.013,30.932,30.932,0,0,1-4.024,3.453c-.7.548-1.432,1.069-2.123,1.634a4.186,4.186,0,0,0-1.457,2.484,2.774,2.774,0,0,1-4.6,1.7c-.32-.244-.629-.5-.95-.746a1.857,1.857,0,0,1-.675-2.235c.4-1.268.757-2.545,1.162-3.809,1.173-3.66,2.347-7.32,3.549-10.97a3.177,3.177,0,0,0-.392-3.219,4.7,4.7,0,0,1-.575-1.512c-.086-.252.156-.321.279-.452.154-.163.245,0,.345.083A7.254,7.254,0,0,1,6.5,81.053c.483.935,1.154,1.074,2.182.651.114-.047.3-.312.409.014.073.222.1.414-.226.527-.939.331-1.858.719-2.8,1.053-.325.115-.35.232-.193.516.424.764.82,1.544,1.226,2.318.079.151.2.28-.065.41a3.657,3.657,0,0,0-2.032,3.77,14.9,14.9,0,0,0,.245,2.243A1.463,1.463,0,0,0,7.132,93.9,9.331,9.331,0,0,0,11.462,92a11.064,11.064,0,0,0,2.76-3.138c.072-.12.141-.241.217-.358.017-.026.057-.037.086-.054M3.235,92.746a8.893,8.893,0,0,0-1.115,5.48A1.4,1.4,0,0,0,3.4,99.2a4.475,4.475,0,0,0,3.613-2.784c-.342-.078-.683-.148-1.019-.236q-.532-.138-1.056-.3A1.807,1.807,0,0,1,3.625,94.51c-.126-.542-.241-1.087-.389-1.764" transform="translate(3107 282.836)" fill="#bf1220"/>
    <path id="Path_964" data-name="Path 964" d="M110.077,24.764a14.044,14.044,0,0,1,4.2-9.724,25.982,25.982,0,0,1,5.941-4.026c2.564-1.4,5.17-2.725,7.744-4.109C131.143,5.2,134.074,3.192,136,0a10.39,10.39,0,0,1-.763,3.377,11,11,0,0,1-4.186,5,83.927,83.927,0,0,1-10.227,6,26.661,26.661,0,0,0-7.2,4.856,15.349,15.349,0,0,0-3.546,5.527" transform="translate(3045.244 327)" fill="#bf1220"/>
    <path id="Path_965" data-name="Path 965" d="M161.941,34.846c.1.2-.065.322-.139.461a14.176,14.176,0,0,1-9.229,7.456c-3.115.82-6.276,1.44-9.393,2.244-3.68.948-7.259,2.219-10.873,3.381a1.72,1.72,0,0,1-1.017.109,15.2,15.2,0,0,1,3.561-2.925,28.485,28.485,0,0,1,6.846-2.605c3.655-1.085,7.39-1.89,11.02-3.065a23.961,23.961,0,0,0,9.137-5,.3.3,0,0,1,.094-.039Z" transform="translate(3033.344 307.451)" fill="#bf1220"/>
    <path id="Path_966" data-name="Path 966" d="M22.731,73.252c-.08-.235.148-.289.253-.4a15.758,15.758,0,0,1,9.409-4.563,32.155,32.155,0,0,1,10.874.3,36.335,36.335,0,0,1,13.765,6.089,8.836,8.836,0,0,1,1.5,1.39c.14.157.361.3.255.609-2.308-1.215-4.647-2.341-7.049-3.333a44.35,44.35,0,0,0-11.232-3.156,29.959,29.959,0,0,0-17.17,2.762c-.2.1-.412.191-.618.287Z" transform="translate(3094.258 288.868)" fill="#bf1220"/>
    <path id="Path_967" data-name="Path 967" d="M101.785,181.48c0-1.314,0-2.628,0-3.942,0-.71.127-.856.813-.84a30.6,30.6,0,0,1,4.618.125,3.132,3.132,0,0,1,2.58,4.255,2.593,2.593,0,0,1-.96,1.283.392.392,0,0,0-.151.595c.382.8.737,1.622,1.093,2.439.226.519.124.675-.432.681s-1.089-.027-1.63.009a.829.829,0,0,1-.97-.663c-.184-.6-.445-1.177-.625-1.777a.573.573,0,0,0-.676-.466c-.953.022-.954,0-.954.977,0,.456-.009.911,0,1.367.009.383-.11.587-.544.562a15.065,15.065,0,0,0-1.63,0c-.427.022-.546-.16-.542-.557.014-1.349.005-2.7.005-4.047m2.708-1.417c0,.3.007.6,0,.893-.006.191.044.291.261.284.42-.015.843.018,1.261-.018a1.219,1.219,0,0,0,1.176-1.24c0-.627-.419-1.008-1.176-1.075-.07-.006-.14-.009-.209-.014-1.31-.107-1.31-.107-1.31,1.17" transform="translate(3049.9 227.883)" fill="#bf1220"/>
    <path id="Path_968" data-name="Path 968" d="M130.561,87.058l10.468,5.876a4.056,4.056,0,0,1-2.541.2,10.167,10.167,0,0,1-3.785-1.868c-.942-.67-1.873-1.357-2.8-2.045a15.1,15.1,0,0,0-2.611-1.422c.058.909.536,1.78-.012,2.6a3.53,3.53,0,0,1-1.737,1.075,3.452,3.452,0,0,0-.372-4.837c.54.091.907.309,1.324.363a2.135,2.135,0,0,0,2.405-1.429,1.318,1.318,0,0,0-.41-1.47,12.22,12.22,0,0,0-2.293-1.748c-.172-.114-.347-.224-.544-.352a11.933,11.933,0,0,1,4.427.886,3.647,3.647,0,0,1,1.287,1.063,1.909,1.909,0,0,0,1.168.725A104.158,104.158,0,0,0,145.087,86.9c-.047.337-.309.47-.526.612a5.21,5.21,0,0,1-4.489.529,32.518,32.518,0,0,1-4.207-1.756,6.168,6.168,0,0,0-1.837-.6,2.026,2.026,0,0,0-1.5.352,4.8,4.8,0,0,1-1.968,1.019" transform="translate(3035.655 281)" fill="#bf1220"/>
    <path id="Path_969" data-name="Path 969" d="M335.262,188.564c0,.848-.023,1.63.009,2.41.019.47-.082.725-.62.708a13.82,13.82,0,0,0-1.415.084c-.639.045-.681.01-.682-.646,0-1.227,0-2.454,0-3.681a23.351,23.351,0,0,0-.248-4.766c-.1-.46.013-.733.556-.752a9.1,9.1,0,0,0,1.4-.186c.449-.088.664.058.684.518a3.979,3.979,0,0,0,.106.57c.151.026.2-.11.285-.188a2.8,2.8,0,0,1,4.714.993,4.852,4.852,0,0,1,.1,3.348,3.089,3.089,0,0,1-4.38,1.85c-.152-.072-.3-.153-.514-.261m0-2.942a1.216,1.216,0,0,0,1.361,1.368c.751.013,1.259-.582,1.267-1.48a1.262,1.262,0,0,0-1.2-1.427,1.423,1.423,0,0,0-1.431,1.539" transform="translate(2920.587 225.057)" fill="#bf1220"/>
    <path id="Path_970" data-name="Path 970" d="M135.636,64.874a11.813,11.813,0,0,1,3.971-1.718,41.567,41.567,0,0,1,6.377-1.018,41.183,41.183,0,0,0,12.052-2.911c.159-.067.325-.115.562-.2a4.946,4.946,0,0,1-.788,1.615,10.077,10.077,0,0,1-6.746,3.976,24.55,24.55,0,0,1-5.194.159c-2.316-.085-4.626.057-6.939.091-1.1.016-2.2,0-3.3,0" transform="translate(3030.905 293.883)" fill="#bf1220"/>
    <path id="Path_971" data-name="Path 971" d="M164.533,178.684c0-1.107.011-2.1-.007-3.1-.006-.32.1-.5.416-.544.537-.075,1.075-.144,1.61-.231.453-.074.626.077.622.558-.019,2.276.006,4.553-.017,6.829a10.45,10.45,0,0,0,.329,2.17c.083.416-.023.632-.476.653a6.328,6.328,0,0,0-1.146.129c-.5.116-.771-.043-.863-.54a1.833,1.833,0,0,0-.111-.277,2.992,2.992,0,0,1-2.815.861,3.174,3.174,0,0,1-2.659-2.92,4.532,4.532,0,0,1,.369-2.665,2.923,2.923,0,0,1,4.378-1.2c.1.066.189.141.371.278m.017,2.98a1.282,1.282,0,0,0-1.43-1.463,1.322,1.322,0,0,0-1.269,1.441,1.355,1.355,0,0,0,1.261,1.462,1.255,1.255,0,0,0,1.438-1.441" transform="translate(3017.597 228.937)" fill="#bf1220"/>
    <path id="Path_972" data-name="Path 972" d="M295.1,181.361c0-1.314,0-2.628,0-3.942,0-.637.068-.708.686-.709,1.894,0,3.788.012,5.68-.011.45-.005.588.177.587.579,0,.35.01.7.035,1.05.029.4-.137.573-.548.567-1.034-.014-2.069.012-3.1-.014-.379-.009-.515.071-.5.482.028.922,0,.923.95.923.631,0,1.263.012,1.893,0,.357-.009.519.128.508.49-.012.4-.015.806,0,1.208.014.365-.146.5-.5.491-.806-.014-1.613.007-2.419-.01-.3-.006-.428.045-.43.393,0,1.043-.022,1.043,1.031,1.043.946,0,1.893,0,2.84,0,.623,0,.735.133.668.755-.156,1.439-.156,1.439-1.622,1.439q-2.525,0-5.05,0c-.641,0-.7-.056-.7-.683,0-1.349,0-2.7,0-4.047" transform="translate(2941.441 227.868)" fill="#bf1220"/>
    <path id="Path_973" data-name="Path 973" d="M207.073,176.718a16.153,16.153,0,0,1,2.525.107,3.327,3.327,0,0,1,2.892,3.549,3.387,3.387,0,0,1-3.122,3.2,12.849,12.849,0,0,1-1.941.053c-.3-.006-.4.083-.385.383.021.542,0,1.085.007,1.628,0,.321-.116.48-.467.47-.63-.018-1.261-.016-1.892,0-.325.008-.49-.1-.489-.445q.008-4.176,0-8.352c0-.41.2-.6.619-.594.7.012,1.4,0,2.25,0m-.026,3.513c0,1.413,0,1.413,1.341,1.344a1.355,1.355,0,0,0,1.394-1.393,1.3,1.3,0,0,0-1.4-1.252c-1.335-.048-1.335-.048-1.335,1.3" transform="translate(2992.439 227.859)" fill="#bf1220"/>
    <path id="Path_974" data-name="Path 974" d="M256.318,186.717c.356-1.29.731-2.575,1.057-3.873a.745.745,0,0,1,.877-.675c.471.029.946,0,1.419-.008.388-.009.576.124.425.538-.905,2.477-1.708,4.992-2.7,7.434a2.833,2.833,0,0,1-3.482,1.807.55.55,0,0,1-.511-.449c-.065-.362-.14-.722-.188-1.086-.043-.32.141-.447.439-.432a1.984,1.984,0,0,1,.253.064c.939.181,1.272-.018,1.627-1.024-.758.153-.951-.349-1.143-.909-.584-1.7-1.2-3.393-1.795-5.09-.223-.633-.173-.708.5-.792.434-.054.871-.087,1.3-.144a.6.6,0,0,1,.753.526c.336,1.37.7,2.734,1.054,4.1l.116.011" transform="translate(2965.358 224.855)" fill="#bf1220"/>
    <path id="Path_975" data-name="Path 975" d="M239.25,188.223a3.509,3.509,0,0,1-2.845.943,1.983,1.983,0,0,1-1.918-1.639,2.076,2.076,0,0,1,1.068-2.352,3.791,3.791,0,0,1,2.808-.264c.18.045.346.171.549.121a1.108,1.108,0,0,0-.988-1.03,3.292,3.292,0,0,0-1.852.24c-.492.2-.725.039-.839-.432-.037-.152-.094-.3-.142-.45-.283-.875-.222-1,.685-1.239a6.849,6.849,0,0,1,3.166-.218,2.98,2.98,0,0,1,2.54,3.064,11.032,11.032,0,0,0,.314,3.33c.127.421-.059.618-.486.649a5.623,5.623,0,0,0-1.092.141c-.536.147-.8-.041-.874-.564a2.154,2.154,0,0,0-.1-.3m-1.64-.8a1.454,1.454,0,0,0,1.05-.39c.242-.242.34-.447-.1-.578a2.507,2.507,0,0,0-1.021-.173c-.37.045-.726.16-.693.614s.388.529.767.527" transform="translate(2975.477 225.005)" fill="#bf1220"/>
    <path id="Path_976" data-name="Path 976" d="M144.937,185.071a1.221,1.221,0,0,0-1.077-1.082,3.541,3.541,0,0,0-1.852.259c-.4.153-.609.078-.758-.338-.546-1.523-.521-1.579,1.064-1.926a5.667,5.667,0,0,1,3.01.024,2.883,2.883,0,0,1,2.142,2.948,10.99,10.99,0,0,0,.313,3.33c.126.417-.047.623-.48.654a5.763,5.763,0,0,0-1.092.141c-.529.144-.8-.026-.878-.557a2.118,2.118,0,0,0-.094-.3,3.544,3.544,0,0,1-2.842.936,1.988,1.988,0,0,1-1.923-1.635,2.075,2.075,0,0,1,1.061-2.355,3.741,3.741,0,0,1,2.806-.264c.181.047.361.1.6.162m-1.314,2.353a1.541,1.541,0,0,0,.842-.247c.171-.125.387-.269.377-.473-.012-.248-.306-.225-.487-.3a1.671,1.671,0,0,0-.87-.119c-.353.048-.681.168-.661.591.021.449.367.542.8.547" transform="translate(3028.223 225.01)" fill="#bf1220"/>
    <path id="Path_977" data-name="Path 977" d="M366.4,189.186a3.64,3.64,0,0,1-3.529-2.016,3.719,3.719,0,0,1,.432-4.057,4.37,4.37,0,0,1,5.431-.693,3.759,3.759,0,0,1,1.191,4.8,3.722,3.722,0,0,1-3.525,1.961m-1.418-3.708a1.459,1.459,0,0,0,1.416,1.572,1.5,1.5,0,0,0,1.45-1.554,1.511,1.511,0,0,0-1.432-1.578,1.468,1.468,0,0,0-1.435,1.56" transform="translate(2903.652 225.014)" fill="#bf1220"/>
    <path id="Path_978" data-name="Path 978" d="M126.834,186.058c-.561,0-1.122,0-1.684,0-.112,0-.263-.053-.321.088s.047.231.12.328a1.39,1.39,0,0,0,1.125.576,5.123,5.123,0,0,0,1.809-.269c.431-.148.724-.078.788.43a.346.346,0,0,0,.018.05c.353,1.284.259,1.46-1.043,1.755a5.716,5.716,0,0,1-2.861-.025,3.52,3.52,0,0,1-2.563-3.951,3.459,3.459,0,0,1,3.292-3.234,4.545,4.545,0,0,1,1.818.182,3,3,0,0,1,2.025,3.533c-.048.389-.365.531-.735.533-.6,0-1.193,0-1.789,0m-.822-1.321c.262,0,.524.011.785,0,.121-.008.3.1.355-.1a.469.469,0,0,0-.124-.386,1.3,1.3,0,0,0-2.037.093c-.069.094-.187.194-.139.32.057.151.213.069.322.074.279.012.558,0,.838,0" transform="translate(3038.442 225.013)" fill="#bf1220"/>
    <path id="Path_979" data-name="Path 979" d="M400.05,186.057c-.6,0-1.193.007-1.789,0-.3,0-.342.118-.193.343a1.369,1.369,0,0,0,1.138.651,5.048,5.048,0,0,0,1.861-.27c.437-.151.667-.039.791.441.347,1.338.253,1.534-1.1,1.813a5.676,5.676,0,0,1-3.011-.1,3.554,3.554,0,0,1-2.346-3.951,3.461,3.461,0,0,1,3.3-3.172,4.419,4.419,0,0,1,1.868.2,3.009,3.009,0,0,1,1.963,3.526c-.047.387-.374.522-.743.523-.579,0-1.158,0-1.737,0m-2.056-1.321c.678,0,1.3,0,1.932,0,.13,0,.311.077.383-.06.091-.173-.034-.335-.143-.472a1.3,1.3,0,0,0-2.172.536" transform="translate(2885.187 225.015)" fill="#bf1220"/>
    <path id="Path_980" data-name="Path 980" d="M156.587,78.347c-2.565,2.844-5.922,4.088-9.435,3.061-2.853-.834-5.689-1.726-8.529-2.6-.131-.04-.374-.039-.329-.253.034-.166.239-.09.37-.095a71.462,71.462,0,0,1,10.859.427,16.253,16.253,0,0,0,7.065-.541" transform="translate(3029.416 283.045)" fill="#bf1220"/>
    <path id="Path_981" data-name="Path 981" d="M316.991,187.355c-.309.491-.59.912-.841,1.35a.67.67,0,0,1-.673.388c-.613-.021-1.227-.006-1.841-.006-.156,0-.333.032-.415-.146s.06-.3.152-.416c.643-.831,1.28-1.667,1.944-2.481a.454.454,0,0,0,0-.676c-.616-.807-1.21-1.631-1.8-2.455-.339-.471-.274-.611.3-.689.468-.064.94-.106,1.408-.173a.776.776,0,0,1,.875.415c.279.485.594.948.926,1.472.324-.493.64-.947.926-1.42a.722.722,0,0,1,.692-.378c.543.008,1.087,0,1.631,0,.186,0,.415-.063.523.148.121.236-.089.387-.209.548-.586.786-1.152,1.59-1.781,2.341-.295.353-.232.567.019.882.621.781,1.211,1.587,1.806,2.388.108.146.3.288.182.505-.1.194-.309.127-.476.129-.578.005-1.158-.014-1.736.008a.719.719,0,0,1-.693-.37c-.284-.44-.584-.871-.92-1.369" transform="translate(2931.29 224.873)" fill="#bf1220"/>
    <path id="Path_982" data-name="Path 982" d="M224.816,179.452c0-1.244.022-2.489-.011-3.732-.013-.464.171-.618.589-.662.452-.047.9-.14,1.349-.207.606-.09.724.007.724.615,0,2.365.005,4.731,0,7.1,0,.4.008.733.562.542a.273.273,0,0,1,.245.044,2.823,2.823,0,0,1,.337,1.405c.021.3-.28.408-.528.511a2.193,2.193,0,0,1-3.263-2.143q0-1.735,0-3.469" transform="translate(2980.88 228.92)" fill="#bf1220"/>
    <path id="Path_983" data-name="Path 983" d="M352.654,179.412c0-1.244.018-2.489-.01-3.732-.01-.413.147-.563.526-.608.486-.058.968-.153,1.453-.222.572-.08.681.017.682.608q0,3.548,0,7.1c0,.385-.02.746.551.554a.277.277,0,0,1,.245.038,2.927,2.927,0,0,1,.351,1.348c.05.309-.228.44-.474.55a2.2,2.2,0,0,1-3.322-2.111q0-1.761,0-3.522" transform="translate(2909.159 228.918)" fill="#bf1220"/>
    <path id="Path_984" data-name="Path 984" d="M384.759,182.828a2.134,2.134,0,0,1,2.443-.988.6.6,0,0,1,.467.836c-.135.47-.279.937-.405,1.409a.451.451,0,0,1-.673.349,1.3,1.3,0,0,0-.771-.065c-.438.115-.731.3-.7.856.049,1.03,0,2.065.021,3.1.008.419-.115.611-.568.585a12.35,12.35,0,0,0-1.628,0c-.49.036-.6-.19-.6-.616.014-.98-.017-1.961.01-2.94a14.687,14.687,0,0,0-.337-2.859c-.058-.344,0-.529.391-.561a10.592,10.592,0,0,0,1.348-.2c.518-.111.81.043.866.591a3.38,3.38,0,0,0,.134.5" transform="translate(2892.69 225.059)" fill="#bf1220"/>
    <path id="Path_985" data-name="Path 985" d="M159.854,12.245a8.334,8.334,0,0,1-1.342,4.414,11.833,11.833,0,0,1-7.561,4.994,13.932,13.932,0,0,1-3.3.383,71.712,71.712,0,0,0,6.721-3.99c2.1-1.609,3.639-3.759,5.478-5.8" transform="translate(3024.162 320.13)" fill="#bf1220"/>
    <path id="Path_986" data-name="Path 986" d="M187.5,184.87a1.939,1.939,0,0,1,2.174,2.01,2.007,2.007,0,0,1-2.111,2.113,2.055,2.055,0,0,1-2.264-2.131,1.963,1.963,0,0,1,2.2-1.992" transform="translate(3003.043 223.284)" fill="#bf1220"/>
    <path id="Path_987" data-name="Path 987" d="M278.409,184.87a1.938,1.938,0,0,1,2.164,2.02,2.007,2.007,0,0,1-2.121,2.1A2.053,2.053,0,0,1,276.2,186.9a1.963,1.963,0,0,1,2.211-2.034" transform="translate(2952.047 223.284)" fill="#bf1220"/>
    <path id="Path_988" data-name="Path 988" d="M201.121,34.788l.053-.067c0,.021.009.043.013.065l-.074-.01.008.012" transform="translate(2994.171 307.521)" fill="#bf1220"/>
    <path id="Path_989" data-name="Path 989" d="M127.186,92.5l-.033.01,0-.025Z" transform="translate(3035.664 275.114)" fill="#bf1220"/>
    <path id="Path_990" data-name="Path 990" d="M22.637,79.98a.412.412,0,0,1-.048.02c-.007,0-.017-.006-.025-.009h.082l-.008-.01" transform="translate(3094.341 282.129)" fill="#bf1220"/>
  </g>
</svg>
