<svg id="Group_1112" data-name="Group 1112" xmlns="http://www.w3.org/2000/svg" xmlns:xlink="http://www.w3.org/1999/xlink" width="62.937" height="43.531" viewBox="0 0 62.937 43.531">
  <defs>
    <linearGradient id="linear-gradient" x1="0.5" x2="0.5" y2="1" gradientUnits="objectBoundingBox">
      <stop offset="0" stop-color="#ff6f6f"/>
      <stop offset="1" stop-color="#ce2f2f"/>
    </linearGradient>
    <clipPath id="clip-path">
      <rect id="Rectangle_788" data-name="Rectangle 788" width="62.937" height="43.531" fill="url(#linear-gradient)"/>
    </clipPath>
  </defs>
  <g id="Group_1016" data-name="Group 1016" clip-path="url(#clip-path)">
    <path id="Path_997" data-name="Path 997" d="M93.933,36.123c-.083.079-.2.143-.242.24a2.084,2.084,0,0,1-2.144,1.319c-1.636,0-3.272.014-4.907-.01a.641.641,0,0,0-.731.525,7.9,7.9,0,0,1-14.94-.006.649.649,0,0,0-.734-.52q-5.336.027-10.673,0a.615.615,0,0,0-.7.483,7.893,7.893,0,0,1-14.955.017.642.642,0,0,0-.75-.5q-2.177.029-4.355,0a1.987,1.987,0,0,1-2.18-1.919,1.856,1.856,0,0,1,1.682-1.993c.931-.094,1.877-.054,2.817-.062.855-.008,1.71,0,2.57,0a7.918,7.918,0,0,1,15.15-.663.815.815,0,0,0,.929.678c3.455-.031,6.911-.026,10.366,0a.7.7,0,0,0,.808-.585,7.888,7.888,0,0,1,15,.032.655.655,0,0,0,.762.552c1.019-.033,2.041-.01,3.157-.01v-.692c0-2.965.012-5.93-.016-8.894a1.946,1.946,0,0,0-.352-1.047c-.678-.946-1.433-1.837-2.123-2.775a1.1,1.1,0,0,0-1.011-.507c-4.764.019-9.528.012-14.292.012-1.751,0-2.46-.7-2.46-2.446q0-6.287,0-12.575V3.963h-.824q-14.844,0-29.689,0A4.238,4.238,0,0,1,38,3.847a1.914,1.914,0,0,1-1.37-2.066A1.911,1.911,0,0,1,38.32.035,5.589,5.589,0,0,1,38.993,0Q55.064,0,71.135,0a4.267,4.267,0,0,1,.974.08,1.968,1.968,0,0,1,1.445,1.912c.021.629,0,1.26,0,1.968h.706c2.474,0,4.948.018,7.422-.008a2.255,2.255,0,0,1,2.235,1.387C85.576,8.669,87.232,12,88.938,15.3A25.651,25.651,0,0,0,90.79,18.24c1.016,1.444,2.092,2.846,3.143,4.265ZM84.745,15.8c-1.3-2.6-2.554-5.1-3.83-7.583a.757.757,0,0,0-.567-.3c-1.042-.029-2.085-.014-3.127-.014H73.6V15.8ZM78.5,31.688a3.94,3.94,0,1,0,3.9,3.982,3.949,3.949,0,0,0-3.9-3.982M55.325,35.711a3.945,3.945,0,1,0-4.072,3.854,3.927,3.927,0,0,0,4.072-3.854" transform="translate(-30.996 0)" fill="url(#linear-gradient)"/>
    <path id="Path_998" data-name="Path 998" d="M0,104.775a2.534,2.534,0,0,1,2.663-1.481c5.31.04,10.62.016,15.929.018a2.026,2.026,0,0,1,2.148,1.377,1.944,1.944,0,0,1-1.642,2.553,6.83,6.83,0,0,1-.734.027c-5.289,0-10.579-.02-15.868.017a2.344,2.344,0,0,1-2.5-1.53Z" transform="translate(0 -87.422)" fill="url(#linear-gradient)"/>
    <path id="Path_999" data-name="Path 999" d="M31.55,52.857c2.759,0,5.519-.008,8.278,0A1.971,1.971,0,1,1,39.91,56.8c-1.471.023-2.943.007-4.415.007-4.088,0-8.176.006-12.265,0a1.982,1.982,0,0,1-2.057-2.513,1.954,1.954,0,0,1,2.037-1.429c2.78-.009,5.56,0,8.34,0" transform="translate(-17.856 -44.733)" fill="url(#linear-gradient)"/>
    <path id="Path_1000" data-name="Path 1000" d="M27.585,154.17c1.554,0,3.109-.043,4.661.013a1.919,1.919,0,0,1,1.737,2.621,1.871,1.871,0,0,1-1.833,1.3c-3.046.023-6.093.028-9.139,0a1.966,1.966,0,1,1,.035-3.933c1.512-.031,3.026-.008,4.539-.008v.011" transform="translate(-17.817 -130.465)" fill="url(#linear-gradient)"/>
  </g>
</svg>
