<svg xmlns="http://www.w3.org/2000/svg" xmlns:xlink="http://www.w3.org/1999/xlink" width="51.825" height="51.789" viewBox="0 0 51.825 51.789">
  <defs>
    <clipPath id="clip-path">
      <rect id="Rectangle_849" data-name="Rectangle 849" width="51.825" height="51.789" fill="#229baa"/>
    </clipPath>
  </defs>
  <g id="Group_1118" data-name="Group 1118" clip-path="url(#clip-path)">
    <path id="Path_1030" data-name="Path 1030" d="M0,20.333V16.186a1.622,1.622,0,0,0,.08-.237,4.343,4.343,0,0,1,3.9-3.722c1.793-.141,3.6-.067,5.4-.086.415,0,.829,0,1.314,0-.112-.2-.181-.325-.258-.448A7.545,7.545,0,0,1,13.713.666a7.421,7.421,0,0,1,8.28,1.421,14.151,14.151,0,0,1,2.467,4.028c.492,1.1.935,2.218,1.435,3.414l.23-.518c.69-1.551,1.321-3.133,2.084-4.648A7.2,7.2,0,0,1,36.193.1,7.565,7.565,0,0,1,42.006,10.43c-.25.572-.562,1.118-.863,1.71,2.019,0,3.99-.013,5.961,0a4.462,4.462,0,0,1,4.635,4.149,22.519,22.519,0,0,1-.006,3.987,4.134,4.134,0,0,1-2.4,3.455.91.91,0,0,0-.585.982q.02,11.122.01,22.243a4.661,4.661,0,0,1-1.837,3.913,5.617,5.617,0,0,1-2.211.917H7.081a9.622,9.622,0,0,1-1.428-.458,4.516,4.516,0,0,1-2.618-4.365q0-11.238.007-22.475a.619.619,0,0,0-.425-.673A4.722,4.722,0,0,1,1.6,23.168,4.882,4.882,0,0,1,0,20.333M6.07,24.3v.533q0,11.049,0,22.1c0,1.253.568,1.82,1.821,1.821q5.715,0,11.431,0c.161,0,.323-.014.482-.022V24.3ZM31.993,48.755H43.854c1.322,0,1.872-.549,1.872-1.871q0-11.024,0-22.048V24.3H31.993Zm-9.108-.036h6.009V15.2H22.885ZM19.806,15.2c-.1-.011-.169-.023-.234-.023q-7.48,0-14.959,0a1.506,1.506,0,0,0-1.575,1.6c-.011.876,0,1.752,0,2.627,0,1.279.562,1.834,1.856,1.834H19.806ZM31.989,21.21a1.476,1.476,0,0,0,.19.03q7.5,0,15.01,0a1.507,1.507,0,0,0,1.571-1.607c.011-.859,0-1.718,0-2.577,0-1.328-.546-1.879-1.861-1.88H31.989Zm-8.365-9.144a52.828,52.828,0,0,0-3.081-6.908,4.071,4.071,0,0,0-4.407-2.051,4.571,4.571,0,0,0-3.89,4.478,4.4,4.4,0,0,0,3.883,4.449c2.467.143,4.948.033,7.5.033m4.534.067c2.389,0,4.684.08,6.971-.018a4.5,4.5,0,0,0,3.743-6.888c-1.527-2.641-5.881-3.133-7.494-.22-.788,1.423-1.449,2.919-2.126,4.4-.4.868-.714,1.772-1.093,2.726" transform="translate(0 0)" fill="#229baa"/>
  </g>
</svg>
