<svg xmlns="http://www.w3.org/2000/svg" xmlns:xlink="http://www.w3.org/1999/xlink" width="88.259" height="93.593" viewBox="0 0 88.259 93.593">
  <defs>
    <clipPath id="clip-path">
      <rect id="Rectangle_772" data-name="Rectangle 772" width="57.602" height="74.369" fill="#ff6f96"/>
    </clipPath>
  </defs>
  <g id="Group_979" data-name="Group 979" transform="translate(0 30.524) rotate(-32)" opacity="0.5">
    <g id="Group_979-2" data-name="Group 979" transform="translate(0 0)" clip-path="url(#clip-path)">
      <path id="Path_949" data-name="Path 949" d="M12.221,59.973a28.285,28.285,0,1,1,32.315-.161,28.215,28.215,0,0,1-32.315.161M43.855,14.065a27.479,27.479,0,1,0,6.874,6.826,27.573,27.573,0,0,0-6.874-6.826" transform="translate(0 1.72)" fill="#ff6f96"/>
      <path id="Path_950" data-name="Path 950" d="M.85,38.738a.4.4,0,0,1-.14-.167.416.416,0,0,1,.2-.55,12.5,12.5,0,0,1,3.69-.358c1.538.079,1.78-2.189,2-5.943.145-2.51.3-5.109,1.181-6.984a2.92,2.92,0,0,1,2.391-1.953,3.533,3.533,0,0,1,3.016,1.728,5.047,5.047,0,0,1,.393,5.021c-.661,1.346-.057,2.942.568,4.042,1.772,3.112,5.788,6.085,7.709,6.243a.689.689,0,0,0,.556-.165c.632-.582.645-2.488.659-4.335.028-2.464.048-5.009,1.389-6,1.845-1.366,4.775,2.033,7.875,5.632a43.745,43.745,0,0,0,3.832,4.108c1.7,1.463,3.1,2.1,3.849,1.741.638-.3.939-1.385.876-3.12-.125-3.588-2.009-11.029-3.4-14.383a3.948,3.948,0,0,1,.7-4.594c1.374-1.187,3.589-1.015,6.066.471,2.545,1.522,3.473,1.313,3.75,1.153a.882.882,0,0,0,.343-.837.41.41,0,0,1,.282-.4.4.4,0,0,1,.278.006c.163.02.725.028,1.109.036,1.327.025,1.437.03,1.584.24a.413.413,0,0,1-.487.624c-.165-.019-.729-.03-1.114-.033s-.653-.012-.862-.022a1.464,1.464,0,0,1-.715,1.093c-.9.519-2.446.131-4.593-1.155s-4.013-1.493-5.1-.552a3.149,3.149,0,0,0-.474,3.647c1.421,3.412,3.335,11,3.465,14.667.077,2.156-.362,3.432-1.344,3.9-1.109.532-2.707-.092-4.753-1.864a44.223,44.223,0,0,1-3.914-4.195c-2.46-2.858-5.528-6.41-6.757-5.5-1.008.743-1.03,3.181-1.045,5.333-.02,2.213-.037,4.125-.936,4.945a1.481,1.481,0,0,1-1.181.375c-2.163-.17-6.445-3.283-8.36-6.658-1.039-1.824-1.245-3.488-.6-4.811a4.2,4.2,0,0,0-.33-4.189,2.711,2.711,0,0,0-2.262-1.373,2.22,2.22,0,0,0-1.712,1.485c-.809,1.728-.957,4.245-1.1,6.673-.208,3.525-.4,6.855-2.871,6.726a12.238,12.238,0,0,0-3.3.281.417.417,0,0,1-.409-.034" transform="translate(0.137 3.661)" fill="#ff6f96"/>
      <path id="Path_951" data-name="Path 951" d="M18.143,21.483h0a3.474,3.474,0,0,1-1.437-4.168c1.51-4.8,7.721-6.28,11.275-6.089a5.593,5.593,0,0,1,2.72,1.066c1.3.895,2.5,2.309,2.275,3.447-.083.428-.414.989-1.479,1.218-2.277.477-3.827,1.988-5.323,3.445-.514.5-1,.973-1.51,1.4-1.383,1.159-4.614,1-6.521-.314m12.087-8.509a4.839,4.839,0,0,0-2.292-.922c-3.308-.173-9.072,1.166-10.442,5.514A2.677,2.677,0,0,0,18.612,20.8c1.727,1.189,4.528,1.187,5.523.355.484-.4.957-.865,1.46-1.348,1.51-1.473,3.223-3.141,5.731-3.667q.757-.159.838-.57c.126-.621-.721-1.767-1.933-2.6" transform="translate(3.371 2.29)" fill="#ff6f96"/>
      <path id="Path_952" data-name="Path 952" d="M44.194,70.786h0C36.87,65.741,27.647,55.828,19.519,44.265c-6.8-9.681-12.186-19.5-15.158-27.644C1.334,8.311,1.19,2.666,3.957.719,6.181-.843,9.991.152,14.981,3.589A62.962,62.962,0,0,1,22.23,9.55a.412.412,0,0,1,.112.414.421.421,0,0,1-.314.3c-.608.126-1.216.278-1.816.446a.542.542,0,0,1-.359-.067c-3.282-2.439-5.818-3.346-7.015-2.5C10.3,9.915,13.084,18.982,19.6,30.178A115.358,115.358,0,0,0,31.916,47.893c4.777,5.825,9.466,10.442,13.2,13.016,2.869,1.975,5.047,2.641,6.138,1.877,1.208-.854,1.218-3.494.019-7.438a.422.422,0,0,1,.061-.364c.364-.509.7-1.034,1.032-1.569a.408.408,0,0,1,.382-.2.415.415,0,0,1,.352.248c4.587,10.553,5.36,17.908,2.121,20.183-2.222,1.56-6.038.573-11.03-2.865M14.513,4.268C9.9,1.09,6.321.073,4.435,1.4c-2.4,1.685-2.14,7.129.7,14.937,2.948,8.081,8.3,17.829,15.057,27.454C28.273,55.272,37.419,65.11,44.664,70.1c4.616,3.178,8.2,4.2,10.085,2.872,2.777-1.955,1.985-8.823-2.094-18.453-.175.263-.346.521-.525.778,1.283,4.333,1.148,7.075-.4,8.163-1.437,1.012-3.819.379-7.085-1.869C40.85,58.977,36.1,54.3,31.278,48.424A116.135,116.135,0,0,1,18.884,30.591C13.6,21.523,8.725,10.012,12.358,7.457c1.541-1.08,4.214-.276,7.827,2.392.3-.075.6-.154.9-.226a60.146,60.146,0,0,0-6.574-5.354" transform="translate(0.405 0)" fill="#ff6f96"/>
    </g>
  </g>
</svg>
