<svg xmlns="http://www.w3.org/2000/svg" xmlns:xlink="http://www.w3.org/1999/xlink" width="23.681" height="20.025" viewBox="0 0 23.681 20.025">
  <defs>
    <clipPath id="clip-path">
      <rect id="Rectangle_781" data-name="Rectangle 781" width="23.681" height="20.025" fill="#fff"/>
    </clipPath>
  </defs>
  <g id="Group_1095" data-name="Group 1095" transform="translate(-1014.911 -29.518)">
    <g id="Group_999" data-name="Group 999" transform="translate(1014.911 29.518)">
      <g id="Group_998" data-name="Group 998" clip-path="url(#clip-path)">
        <path id="Path_993" data-name="Path 993" d="M23.681,7.1c-.1.5-.166,1-.3,1.487a11.309,11.309,0,0,1-2.084,3.86,26.569,26.569,0,0,1-5.526,5.156c-1.093.786-2.245,1.489-3.365,2.236a.923.923,0,0,1-1.093,0A36.224,36.224,0,0,1,3.78,14.027,14.483,14.483,0,0,1,.605,9.406,6.979,6.979,0,0,1,.878,3.158,5.926,5.926,0,0,1,6.518.007a8.118,8.118,0,0,1,5.163,2.14l.14.117c.525-.37,1.022-.761,1.557-1.09A7.486,7.486,0,0,1,17.769.009,6.129,6.129,0,0,1,23.446,4.7c.1.423.158.859.235,1.29ZM6.355,1.477A4.644,4.644,0,0,0,1.861,4.524a5.888,5.888,0,0,0,.277,4.69,14.5,14.5,0,0,0,2.931,4.012A34.531,34.531,0,0,0,11.7,18.359a.254.254,0,0,0,.309-.009,37.219,37.219,0,0,0,5.153-3.742,18.757,18.757,0,0,0,3.947-4.529,6.457,6.457,0,0,0,1-4.57,4.585,4.585,0,0,0-3.147-3.772,5.45,5.45,0,0,0-4.252.395A8.385,8.385,0,0,0,12.44,3.778a.745.745,0,0,1-1.174.005c-.15-.144-.3-.291-.456-.427a6.955,6.955,0,0,0-4.456-1.88" transform="translate(0 0.001)" fill="#fff"/>
      </g>
    </g>
  </g>
</svg>
