<svg xmlns="http://www.w3.org/2000/svg" xmlns:xlink="http://www.w3.org/1999/xlink" width="63.011" height="48.966" viewBox="0 0 63.011 48.966">
  <defs>
    <clipPath id="clip-path">
      <rect id="Rectangle_850" data-name="Rectangle 850" width="63.011" height="48.966" fill="#f1156b"/>
    </clipPath>
  </defs>
  <g id="Group_1119" data-name="Group 1119" clip-path="url(#clip-path)">
    <path id="Path_1031" data-name="Path 1031" d="M38.152,48.966a2.444,2.444,0,0,1-.952-.2C31.286,46.3,25.269,43.8,19.45,41.383L14.685,39.4c-1.179-.49-1.357-.756-1.357-2.037,0-.9,0-3.645,0-3.645-.114-.006-.223-.012-.329-.012H9.617q-2.756,0-5.513,0a3.046,3.046,0,0,1-.812-.084,1.325,1.325,0,0,1-1.017-1.372,1.307,1.307,0,0,1,1.018-1.3,3.488,3.488,0,0,1,.865-.092q2.57,0,5.14,0h3.99V27.848H10.273l-.215,0-.222,0c-.15,0-.273-.005-.386-.016a1.454,1.454,0,0,1-1.416-1.409A1.431,1.431,0,0,1,9.519,25c.291-.009.606-.013.991-.013l.687,0,.683,0h1.41v-3.01l-5.325,0c-1.649,0-3.819,0-5.987-.017A2.352,2.352,0,0,1,.6,21.54,1.847,1.847,0,0,1,0,20.272a1.223,1.223,0,0,1,1.06-1.222,2.868,2.868,0,0,1,.61-.05h.185l7.1,0h4.5v-7.87c0-1.264.081-1.385,1.243-1.853l4.472-1.8C25.063,5.1,31.156,2.648,37.143.22a2.611,2.611,0,0,1,2.115.008c4.637,1.906,9.355,3.834,13.919,5.7q4.465,1.825,8.928,3.652a2.546,2.546,0,0,1,.552.34c.067.05.134.1.2.145l.151.1V38.42l-.139.1c-.112.082-.222.173-.338.27a3.536,3.536,0,0,1-.878.591c-4.032,1.685-8.135,3.389-12.1,5.037q-5.206,2.163-10.409,4.33a2.551,2.551,0,0,1-.992.216M16.158,34.337c0,.785.01,1.526-.015,2.277-.009.276.044.351.337.472,5.093,2.111,10.267,4.266,15.271,6.351l4.83,2.012c.051.021.1.042.16.062V41.03c0-6.3,0-12.81.013-19.215,0-.3-.055-.375-.374-.507-4.993-2.064-10.065-4.171-14.97-6.208l-5.083-2.111c-.042-.017-.085-.034-.13-.05v6.2l.321,0c.214,0,.426,0,.636,0,.316,0,.577,0,.819.014a1.489,1.489,0,0,1,1.1.508,1.37,1.37,0,0,1,.312,1.067,1.445,1.445,0,0,1-1.54,1.257c-.227.008-.471.012-.766.012-.2,0-.4,0-.6,0l-.282,0v3h5.342q2.165,0,4.331,0a1.462,1.462,0,0,1,1.652,1.382,1.491,1.491,0,0,1-1.586,1.466c-.071,0-.142,0-.213,0l-.29,0H16.192v3.006H17.9c.649,0,1.294,0,1.939,0a3.3,3.3,0,0,1,.806.074,1.388,1.388,0,0,1,.024,2.69,3.238,3.238,0,0,1-.806.085c-.648,0-1.3,0-1.955,0H16.155q0,.321,0,.635m44.009-21.43c-.081.031-.159.061-.235.093l-4.39,1.83c-5.11,2.131-10.393,4.333-15.6,6.488-.293.121-.344.2-.343.526.012,6.422.012,12.952.011,19.266v4.4c.062-.023.121-.046.179-.07l4.542-1.889c5.08-2.114,10.333-4.3,15.506-6.435.345-.142.415-.245.413-.608-.031-6-.049-12.091-.067-17.986l-.017-5.465c0-.048,0-.1,0-.148M31.821,16.371c2.062.863,4.009,1.679,5.979,2.519a.993.993,0,0,0,.4.091,1.1,1.1,0,0,0,.432-.1c4.924-2.07,9.933-4.166,14.777-6.194l4.473-1.872-1.229-.5c-2.122-.856-4.315-1.741-6.482-2.587a.619.619,0,0,0-.217-.033,1.178,1.178,0,0,0-.435.086c-5.637,2.377-11.363,4.808-16.9,7.159l-2.087.886Zm-12.348-5.16c2.348.98,4.776,1.993,7.172,2.966a.441.441,0,0,0,.161.024,1.183,1.183,0,0,0,.427-.09C33.016,11.68,38.89,9.194,44.571,6.79L46.2,6.1l-1.179-.473c-2.161-.868-4.394-1.765-6.6-2.625a.5.5,0,0,0-.18-.027,1.2,1.2,0,0,0-.42.083C34.27,4.471,30.669,5.918,27.186,7.317l-2.739,1.1L18.494,10.8Z" transform="translate(0 0)" fill="#f1156b"/>
    <path id="Path_1032" data-name="Path 1032" d="M268.406,222.568a2.256,2.256,0,0,1-2.061-2.141,2.208,2.208,0,0,1,2.018-2.246h.055a2.207,2.207,0,0,1,2.043,2.172,2.285,2.285,0,0,1-.6,1.536,2,2,0,0,1-1.447.68Z" transform="translate(-221.183 -181.185)" fill="#f1156b"/>
    <path id="Path_1033" data-name="Path 1033" d="M241.555,232.032a1.959,1.959,0,0,1-1.376-.619,2.277,2.277,0,0,1-.661-1.6,2.163,2.163,0,0,1,2.024-2.154h.027a2,2,0,0,1,1.386.624,2.178,2.178,0,0,1-1.388,3.752Z" transform="translate(-198.905 -189.055)" fill="#f1156b"/>
  </g>
</svg>
