<svg id="Group_1547" data-name="Group 1547" xmlns="http://www.w3.org/2000/svg" xmlns:xlink="http://www.w3.org/1999/xlink" width="40.936" height="40.936" viewBox="0 0 40.936 40.936">
  <defs>
    <clipPath id="clip-path">
      <rect id="Rectangle_1131" data-name="Rectangle 1131" width="40.936" height="40.936" rx="8.469" fill="none"/>
    </clipPath>
    <radialGradient id="radial-gradient" cx="-0.014" cy="0.5" r="1.308" gradientUnits="objectBoundingBox">
      <stop offset="0" stop-color="#f5ec53"/>
      <stop offset="0.241" stop-color="#e48244"/>
      <stop offset="0.399" stop-color="#d05567"/>
      <stop offset="0.489" stop-color="#c84278"/>
      <stop offset="1" stop-color="#192cfa"/>
    </radialGradient>
  </defs>
  <g id="Group_1541" data-name="Group 1541" transform="translate(0)">
    <g id="Group_1540" data-name="Group 1540" transform="translate(0)" clip-path="url(#clip-path)">
      <rect id="Rectangle_1130" data-name="Rectangle 1130" width="57.881" height="57.881" transform="matrix(0.721, -0.693, 0.693, 0.721, -20.452, 19.666)" fill="url(#radial-gradient)"/>
    </g>
  </g>
  <path id="Path_1796" data-name="Path 1796" d="M78.375,12.733c3,0,3.352.011,4.535.066a6.169,6.169,0,0,1,2.084.387,3.716,3.716,0,0,1,2.13,2.129A6.213,6.213,0,0,1,87.51,17.4c.054,1.183.066,1.539.066,4.535s-.012,3.352-.066,4.535a6.22,6.22,0,0,1-.387,2.084,3.716,3.716,0,0,1-2.13,2.129,6.213,6.213,0,0,1-2.084.387c-1.183.054-1.538.066-4.535.066s-3.352-.012-4.535-.066a6.213,6.213,0,0,1-2.084-.387,3.715,3.715,0,0,1-2.13-2.129,6.22,6.22,0,0,1-.387-2.084c-.054-1.183-.065-1.538-.065-4.535s.011-3.352.065-4.535a6.213,6.213,0,0,1,.387-2.084,3.715,3.715,0,0,1,2.13-2.129A6.169,6.169,0,0,1,73.84,12.8c1.183-.054,1.538-.066,4.535-.066m0-2.022c-3.048,0-3.43.013-4.627.067a8.263,8.263,0,0,0-2.724.522,5.737,5.737,0,0,0-3.282,3.283,8.218,8.218,0,0,0-.522,2.724c-.054,1.2-.067,1.579-.067,4.626s.013,3.43.067,4.627a8.218,8.218,0,0,0,.522,2.724,5.737,5.737,0,0,0,3.282,3.283,8.243,8.243,0,0,0,2.724.521c1.2.055,1.58.067,4.627.067s3.43-.012,4.627-.067a8.243,8.243,0,0,0,2.724-.521,5.741,5.741,0,0,0,3.283-3.283,8.243,8.243,0,0,0,.521-2.724c.054-1.2.067-1.579.067-4.627s-.013-3.43-.067-4.626a8.243,8.243,0,0,0-.521-2.724A5.741,5.741,0,0,0,85.726,11.3,8.263,8.263,0,0,0,83,10.778c-1.2-.054-1.58-.067-4.627-.067" transform="translate(-57.906 -1.466)" fill="#fff"/>
  <path id="Path_1797" data-name="Path 1797" d="M79.24,17.037A5.763,5.763,0,1,0,85,22.8a5.763,5.763,0,0,0-5.763-5.763m0,9.5A3.741,3.741,0,1,1,82.981,22.8a3.741,3.741,0,0,1-3.741,3.741" transform="translate(-58.772 -2.332)" fill="#fff"/>
  <path id="Path_1798" data-name="Path 1798" d="M88.228,16.559a1.347,1.347,0,1,1-1.347-1.347,1.347,1.347,0,0,1,1.347,1.347" transform="translate(-60.422 -2.082)" fill="#fff"/>
</svg>
