<svg id="Group_1544" data-name="Group 1544" xmlns="http://www.w3.org/2000/svg" width="40.936" height="40.936" viewBox="0 0 40.936 40.936">
  <path id="Path_1799" data-name="Path 1799" d="M206.818,97.843H180.5a7.31,7.31,0,0,1-7.31-7.31V64.217a7.31,7.31,0,0,1,7.31-7.31h26.316a7.31,7.31,0,0,1,7.31,7.31V90.533a7.31,7.31,0,0,1-7.31,7.31" transform="translate(-173.192 -56.907)" fill="#117bb8"/>
  <rect id="Rectangle_1132" data-name="Rectangle 1132" width="4.236" height="13.685" transform="translate(11.186 15.905)" fill="#fff"/>
  <path id="Path_1800" data-name="Path 1800" d="M188.186,72.457a2.526,2.526,0,1,0-2.506-2.526,2.515,2.515,0,0,0,2.506,2.526" transform="translate(-174.901 -58.344)" fill="#fff"/>
  <path id="Path_1801" data-name="Path 1801" d="M198.261,81.769c0-1.924.886-3.07,2.581-3.07,1.558,0,2.306,1.1,2.306,3.07v7.184h4.216V80.288c0-3.666-2.078-5.437-4.979-5.437a4.772,4.772,0,0,0-4.124,2.261V75.268H194.2V88.953h4.064Z" transform="translate(-176.067 -59.363)" fill="#fff"/>
</svg>
