<svg xmlns="http://www.w3.org/2000/svg" width="136.849" height="67.894" viewBox="0 0 136.849 67.894">
  <g id="Group_1146" data-name="Group 1146" transform="translate(-3107 -327)">
    <path id="Path_953" data-name="Path 953" d="M31.72,42.836a3.081,3.081,0,0,1-.989,3.254c-.485.442-1,.854-1.569,1.339.872-.059,1.656-.1,2.439-.166,1.016-.082,2.031-.168,3.04-.317a4.444,4.444,0,0,0,2.929-1.731c.254-.322.532-.625.791-.943a.286.286,0,0,1,.4-.074,2.257,2.257,0,0,1,1.223,3.243,8.325,8.325,0,0,1-1.651,2.267c2.221,1.19,5.557-.512,6.01-3.054.036,0,.087-.008.107.012a4.884,4.884,0,0,1,1.452,4.812,2.263,2.263,0,0,1-2.535,1.85,16.823,16.823,0,0,1-4.592-1.009,45.473,45.473,0,0,0-6.709-1.583,18.507,18.507,0,0,0-14.036,3.433c-.446.329-.889.662-1.416,1.054a8.645,8.645,0,0,1,1.593-3.193,6.519,6.519,0,0,1,1.491-1.3A82.657,82.657,0,0,1,28,46.073a8.3,8.3,0,0,0,3.114-2.334c.21-.281.394-.582.609-.9" transform="translate(3095.891 298.369)" fill="#fff"/>
    <path id="Path_954" data-name="Path 954" d="M191.358,124.4a24.481,24.481,0,0,0-.132-2.773c-.034-.3-.021-.43.369-.375a12.165,12.165,0,0,0,3.168-.007c.267-.033.285.036.262.253a47.77,47.77,0,0,0-.141,5.593c0,.079,0,.159,0,.238.023.795.023.8-.758,1a22.354,22.354,0,0,1-5.993.857,10.843,10.843,0,0,1-6.394-1.913,7.4,7.4,0,0,1-3.172-5.98,9.193,9.193,0,0,1,2.071-6.611,8.871,8.871,0,0,1,5.165-2.892,12.788,12.788,0,0,1,8.622.99c.246.126.346.225.239.532-.208.6-.343,1.219-.52,1.827-.036.124.015.308-.185.349s-.313-.065-.426-.213a5.5,5.5,0,0,0-4.566-2.24,5.577,5.577,0,0,0-5.117,2.936,9,9,0,0,0-.539,8.209,5.556,5.556,0,0,0,5.987,3.43,11.015,11.015,0,0,0,1.643-.263.476.476,0,0,0,.418-.524c0-.807,0-1.615,0-2.422" transform="translate(2987.653 252.499)" fill="#fff"/>
    <path id="Path_955" data-name="Path 955" d="M92.353,41.538a9.3,9.3,0,0,0,2.654.729,3.72,3.72,0,0,0,3.91-2.254,10.7,10.7,0,0,0,.8-3.38c.274-2.284.482-4.579.941-6.837A8.415,8.415,0,0,1,106.915,23c3.435-1.023,6.936-1.793,10.423-2.613a36.76,36.76,0,0,0,7.918-2.633,22.7,22.7,0,0,0,5.952-4.179c.134-.132.239-.34.534-.239a25.237,25.237,0,0,1-1.691,1.969,27.323,27.323,0,0,1-11.241,7.065c-2.461.862-4.965,1.546-7.492,2.184-4.831,1.219-7.73,4.416-8.974,9.167-.536,2.045-.9,4.133-1.507,6.16a7.321,7.321,0,0,1-2,3.238,3.556,3.556,0,0,1-5.461-.212,6.54,6.54,0,0,1-1.022-1.371" transform="translate(3045.271 318.102)" fill="#fff"/>
    <path id="Path_956" data-name="Path 956" d="M326.691,118.419c.034-1.88.038-3.76-.055-5.638-.013-.251.054-.3.275-.272a14.964,14.964,0,0,0,3.488,0c.342-.043.29.146.271.348a83.3,83.3,0,0,0-.315,8.406,14.472,14.472,0,0,0,.466,4.046,3.515,3.515,0,0,0,3.42,2.8,6.7,6.7,0,0,0,1.978-.041,3.374,3.374,0,0,0,2.488-2.179,11.568,11.568,0,0,0,.743-4c.129-2.753.043-5.5-.084-8.254-.014-.3-.021-.609-.043-.912-.012-.177.049-.236.226-.2a5.821,5.821,0,0,0,2.055,0c.3-.054.206.165.2.3-.118,1.385-.178,2.772-.215,4.16-.051,1.919-.057,3.837-.1,5.756a10.471,10.471,0,0,1-.449,2.772,5.6,5.6,0,0,1-4.5,4.151,11.164,11.164,0,0,1-5.8-.294A5.643,5.643,0,0,1,326.7,123.9c-.031-1.826-.006-3.653-.006-5.48" transform="translate(2888.679 251.805)" fill="#fff"/>
    <path id="Path_957" data-name="Path 957" d="M105.579,125.858c.048,1.123.09,2.246.15,3.368.011.211,0,.315-.253.286a15.818,15.818,0,0,0-3.527,0c-.249.028-.276-.071-.261-.281.268-3.925.192-7.856.179-11.785,0-1.572-.049-3.147-.181-4.716-.015-.179,0-.272.219-.245,2.116.263,4.232-.1,6.348,0a9.335,9.335,0,0,1,1.614.2,4.107,4.107,0,0,1,3.3,4.55c-.21,3.049-2.166,4.433-4.836,4.8a16.6,16.6,0,0,1-2.459.084c-.26,0-.334.068-.331.33.014,1.138.006,2.276.006,3.414h.029m.015-8.441h-.043c0,1.045,0,2.089,0,3.134,0,.111-.07.252.155.289a3.148,3.148,0,0,0,3.254-1.9,5.255,5.255,0,0,0,.014-3.423,2.181,2.181,0,0,0-1.818-1.57c-.375-.061-.768,0-1.148-.042-.347-.034-.424.117-.421.423.011,1.031,0,2.062,0,3.093" transform="translate(3039.036 251.825)" fill="#fff"/>
    <path id="Path_958" data-name="Path 958" d="M250,129.307l-2.048-.1a11.576,11.576,0,0,0-1.823.092c-.357.039-.461-.09-.562-.4-.455-1.421-.949-2.829-1.414-4.247a.48.48,0,0,0-.519-.4q-2.483-.083-4.964-.01a.512.512,0,0,0-.538.389c-.532,1.437-1.028,2.885-1.425,4.365-.071.265-.183.347-.436.289a6.152,6.152,0,0,0-2.032.024,1.683,1.683,0,0,1,.228-.644c2.305-5.376,4.557-10.774,6.648-16.237.082-.213.151-.331.42-.252a2.361,2.361,0,0,0,1.3,0c.27-.075.332.035.414.251,1.153,3.023,2.3,6.046,3.479,9.06.983,2.522,2.01,5.025,3.131,7.489.043.094.082.19.143.332m-8.719-12.278c-.052.034-.085.043-.093.062-.792,1.787-1.49,3.612-2.166,5.446-.076.206,0,.246.194.245,1.311-.005,2.623-.009,3.935,0,.313,0,.229-.139.165-.314-.412-1.128-.815-2.261-1.233-3.387-.255-.686-.532-1.364-.8-2.053" transform="translate(2950.433 252.039)" fill="#fff"/>
    <path id="Path_959" data-name="Path 959" d="M143.307,120.992c0-2.739.037-5.479-.179-8.214-.025-.322.136-.3.349-.3,1.456.028,2.91.124,4.368.11,1.509-.015,3.019,0,4.527-.1.234-.016.36-.012.3.3a4.209,4.209,0,0,0,0,1.541c.057.309-.059.313-.3.3-1.188-.08-2.377-.151-3.566-.22-.476-.028-.953-.032-1.427-.07-.215-.017-.275.054-.286.259-.089,1.627-.1,3.254-.095,4.882,0,.254.139.235.3.229,1.627-.06,3.254-.11,4.879-.188.335-.016.458.036.373.391a2.948,2.948,0,0,0,0,1.339c.064.289.018.419-.336.387-1.609-.145-3.224-.18-4.838-.21-.317-.006-.4.092-.4.393.007,1.8-.027,3.6.024,5.4.01.35.091.466.468.455,1.654-.052,3.306-.112,4.951-.311.189-.023.287-.017.245.238a5.316,5.316,0,0,0,0,1.7c.034.214-.017.236-.22.225-2.488-.136-4.978-.122-7.467-.09-.529.007-1.058.036-1.585.079-.232.019-.3-.038-.277-.274.219-2.747.176-5.5.179-8.253" transform="translate(3011.336 251.821)" fill="#fff"/>
    <path id="Path_960" data-name="Path 960" d="M289.554,129.124a7.745,7.745,0,0,1-3.633-.863.38.38,0,0,1-.222-.528,17.746,17.746,0,0,0,.586-2.547c.025-.165.057-.3.286-.29a.289.289,0,0,1,.326.255,3.477,3.477,0,0,0,4.9,2.086,2.425,2.425,0,0,0,.451-4.028,11.11,11.11,0,0,0-2.494-1.451,14.612,14.612,0,0,1-2.221-1.3c-2.664-1.959-2.277-6.524.538-8.144a6.742,6.742,0,0,1,6.99.069.4.4,0,0,1,.212.6c-.227.591-.39,1.206-.589,1.808-.044.132-.025.312-.273.314-.225,0-.26-.142-.318-.283a3,3,0,0,0-3.767-1.713,2.18,2.18,0,0,0-.847,3.823,9.28,9.28,0,0,0,2.239,1.339c.71.352,1.415.71,2.1,1.112,3.508,2.055,2.9,7.078-.331,8.821a8.252,8.252,0,0,1-3.931.925" transform="translate(2916.061 252.563)" fill="#fff"/>
    <path id="Path_961" data-name="Path 961" d="M386.52,111.505a6.933,6.933,0,0,1,3.831.944c.28.175.364.316.228.651-.232.574-.387,1.178-.577,1.769-.045.14-.028.313-.269.319-.22.006-.253-.129-.316-.278a3,3,0,0,0-3.807-1.708,2.182,2.182,0,0,0-.841,3.788,8.513,8.513,0,0,0,2.2,1.331,24.857,24.857,0,0,1,2.239,1.189c3.43,2.111,2.707,6.819-.029,8.548a7.864,7.864,0,0,1-4.622,1.141,7.66,7.66,0,0,1-3.175-.768c-.337-.167-.451-.338-.324-.731a17.127,17.127,0,0,0,.556-2.392c.029-.169.025-.331.288-.326.231,0,.27.115.326.3a3.5,3.5,0,0,0,5.072,1.949,2.43,2.43,0,0,0,.467-3.741,7.127,7.127,0,0,0-2.052-1.333,24.6,24.6,0,0,1-2.409-1.293,4.656,4.656,0,0,1-2.19-4.8,4.864,4.864,0,0,1,3.421-4.222,5.389,5.389,0,0,1,1.989-.339" transform="translate(2852.338 252.473)" fill="#fff"/>
    <path id="Path_962" data-name="Path 962" d="M57.064,110.185c-.179,2.336-1.527,3.087-3.205,2.88-2.182-.269-4.334-.714-6.506-1.044-1.155-.175-2.319-.205-3.48-.291-.339-.025-.262.21-.314.374-.065.206.035.259.234.293,1.773.3,3.544.619,5.315.931.052.009.117,0,.155.025.109.08.376-.062.339.213s-.245.114-.371.1c-1.64-.216-3.279-.44-4.919-.664-.154-.021-.328-.09-.4.118-.067.185.124.213.215.279,1.581,1.157,3.171,2.3,4.749,3.461a1.051,1.051,0,0,0,1.113.13,1.467,1.467,0,0,1,2.084.692,11.585,11.585,0,0,1,.978,2.417c.052.149.024.195-.14.232a4.68,4.68,0,0,1-3.249-.3,9.893,9.893,0,0,1-1.459-.708.821.821,0,0,0-.566-.127,2.189,2.189,0,0,1-1.993-.855c-.517-.67-.971-1.388-1.492-2.053a38.861,38.861,0,0,0-2.771-2.9,2.479,2.479,0,0,1-.823-2.1,2.225,2.225,0,0,1,1.767-1.92c1.017-.289,2.045-.538,3.076-.774.293-.067.355-.155.269-.444a12.191,12.191,0,0,1-.276-2.6,5.226,5.226,0,0,0-4.264-4.939,11.164,11.164,0,0,0-2.117-.231,3.574,3.574,0,0,1,1.912-.447,5.731,5.731,0,0,1,5.1,3.453,3.488,3.488,0,0,1,.239,1.279c0,1.1.018,2.2-.012,3.3-.011.4.109.447.454.355.524-.139,1.057-.239,1.587-.353.122-.026.283-.114.32.09.032.178-.153.149-.249.181-1.417.47-2.836.932-4.253,1.4-.125.041-.317.028-.312.239s.2.181.324.217c2.418.675,4.814,1.434,7.282,1.921a7.352,7.352,0,0,0,2.8.107,4.384,4.384,0,0,0,2.862-1.937" transform="translate(3080.926 260.205)" fill="#fff"/>
    <path id="Path_963" data-name="Path 963" d="M10.972,86.073a2.573,2.573,0,0,1-.433,3.031A23.367,23.367,0,0,1,7.5,91.712c-.533.414-1.082.807-1.6,1.235a3.162,3.162,0,0,0-1.1,1.876A2.1,2.1,0,0,1,1.322,96.1c-.242-.185-.475-.38-.718-.563a1.4,1.4,0,0,1-.51-1.689c.3-.958.572-1.923.878-2.878.886-2.765,1.773-5.529,2.681-8.287a2.4,2.4,0,0,0-.3-2.432,3.549,3.549,0,0,1-.434-1.142c-.065-.19.118-.243.211-.341.116-.123.185,0,.261.062a5.48,5.48,0,0,1,1.518,1.647c.365.707.871.811,1.648.492.086-.035.229-.235.309.01.055.168.072.313-.17.4-.71.25-1.4.544-2.113.8-.245.087-.265.175-.146.39.32.577.619,1.166.926,1.751.06.114.151.212-.049.31a2.762,2.762,0,0,0-1.535,2.848,11.257,11.257,0,0,0,.185,1.694,1.105,1.105,0,0,0,1.421,1.013,7.049,7.049,0,0,0,3.271-1.429,8.357,8.357,0,0,0,2.085-2.37c.054-.091.107-.182.164-.271.013-.02.043-.028.065-.041M2.444,89.315A6.718,6.718,0,0,0,1.6,93.455a1.055,1.055,0,0,0,.965.738A3.381,3.381,0,0,0,5.3,92.09c-.258-.059-.516-.112-.77-.178s-.534-.146-.8-.23a1.365,1.365,0,0,1-.991-1.034c-.1-.41-.182-.821-.294-1.332" transform="translate(3107 274.384)" fill="#fff"/>
    <path id="Path_964" data-name="Path 964" d="M110.077,18.706a10.609,10.609,0,0,1,3.176-7.345,19.627,19.627,0,0,1,4.488-3.041c1.937-1.059,3.905-2.059,5.85-3.1A14.815,14.815,0,0,0,129.657,0a7.849,7.849,0,0,1-.577,2.551,8.31,8.31,0,0,1-3.162,3.777,63.4,63.4,0,0,1-7.726,4.535,20.139,20.139,0,0,0-5.437,3.668,11.594,11.594,0,0,0-2.678,4.175" transform="translate(3033.425 327)" fill="#fff"/>
    <path id="Path_965" data-name="Path 965" d="M154.444,34.846c.073.148-.049.243-.105.348a10.709,10.709,0,0,1-6.972,5.632c-2.353.619-4.741,1.088-7.1,1.7-2.78.716-5.484,1.676-8.213,2.554a1.3,1.3,0,0,1-.768.083,11.478,11.478,0,0,1,2.69-2.21,21.517,21.517,0,0,1,5.172-1.968c2.761-.82,5.583-1.428,8.325-2.315a18.1,18.1,0,0,0,6.9-3.78.225.225,0,0,1,.071-.03Z" transform="translate(3019.247 303.709)" fill="#fff"/>
    <path id="Path_966" data-name="Path 966" d="M22.726,71.96c-.061-.177.112-.219.191-.3a11.9,11.9,0,0,1,7.108-3.447,24.29,24.29,0,0,1,8.214.227,27.447,27.447,0,0,1,10.4,4.6,6.674,6.674,0,0,1,1.135,1.05c.105.119.273.229.193.46-1.743-.918-3.51-1.768-5.325-2.518a33.5,33.5,0,0,0-8.485-2.384,22.631,22.631,0,0,0-12.97,2.087c-.155.074-.311.144-.467.217Z" transform="translate(3091.819 281.57)" fill="#fff"/>
    <path id="Path_967" data-name="Path 967" d="M101.784,180.3c0-.993,0-1.985,0-2.977,0-.537.1-.647.614-.635a23.111,23.111,0,0,1,3.489.094A2.366,2.366,0,0,1,107.837,180a1.959,1.959,0,0,1-.725.969.3.3,0,0,0-.114.449c.288.608.557,1.225.826,1.842.171.392.094.51-.327.515s-.822-.021-1.231.007a.626.626,0,0,1-.733-.5c-.139-.453-.336-.889-.472-1.342a.433.433,0,0,0-.511-.352c-.72.017-.721,0-.721.738,0,.344-.007.688,0,1.032.007.289-.083.443-.411.425a11.381,11.381,0,0,0-1.231,0c-.322.017-.413-.121-.409-.421.011-1.019,0-2.038,0-3.057m2.046-1.071c0,.225.005.45,0,.675,0,.145.033.22.2.214.317-.011.637.014.953-.013a.921.921,0,0,0,.888-.937c0-.473-.317-.762-.888-.812-.053,0-.105-.007-.158-.011-.99-.081-.99-.081-.99.884" transform="translate(3038.971 208.913)" fill="#fff"/>
    <path id="Path_968" data-name="Path 968" d="M129.731,85.819l7.908,4.439a3.064,3.064,0,0,1-1.92.15A7.68,7.68,0,0,1,132.86,89c-.712-.506-1.415-1.025-2.116-1.545a11.408,11.408,0,0,0-1.972-1.074c.044.687.405,1.345-.009,1.966a2.667,2.667,0,0,1-1.312.812,2.608,2.608,0,0,0-.281-3.654c.408.069.685.233,1,.274a1.613,1.613,0,0,0,1.817-1.08,1,1,0,0,0-.31-1.111,9.231,9.231,0,0,0-1.732-1.32c-.13-.086-.262-.169-.411-.266a9.014,9.014,0,0,1,3.344.669,2.755,2.755,0,0,1,.972.8,1.442,1.442,0,0,0,.882.548A78.681,78.681,0,0,0,140.7,85.7c-.036.254-.234.355-.4.463a3.935,3.935,0,0,1-3.391.4,24.564,24.564,0,0,1-3.178-1.326,4.659,4.659,0,0,0-1.388-.456,1.531,1.531,0,0,0-1.132.266,3.629,3.629,0,0,1-1.487.77" transform="translate(3022 272.196)" fill="#fff"/>
    <path id="Path_969" data-name="Path 969" d="M334.531,186.888c0,.64-.018,1.232.007,1.821.014.355-.062.547-.468.535a10.437,10.437,0,0,0-1.069.063c-.482.034-.514.008-.515-.488,0-.927,0-1.854,0-2.781a17.642,17.642,0,0,0-.187-3.6c-.073-.347.01-.553.42-.568a6.875,6.875,0,0,0,1.061-.141c.339-.066.5.044.517.392a3.006,3.006,0,0,0,.08.43c.114.019.154-.083.215-.142a2.118,2.118,0,0,1,3.561.75,3.665,3.665,0,0,1,.077,2.529,2.334,2.334,0,0,1-3.309,1.4c-.115-.054-.227-.115-.388-.2m0-2.222a.919.919,0,0,0,1.028,1.033c.567.01.951-.439.957-1.118a.953.953,0,0,0-.9-1.078,1.075,1.075,0,0,0-1.081,1.163" transform="translate(2884.91 205.546)" fill="#fff"/>
    <path id="Path_970" data-name="Path 970" d="M135.636,63.445a8.924,8.924,0,0,1,3-1.3,31.4,31.4,0,0,1,4.818-.769,31.109,31.109,0,0,0,9.1-2.2c.12-.05.246-.087.424-.149a3.736,3.736,0,0,1-.595,1.22,7.612,7.612,0,0,1-5.1,3,18.545,18.545,0,0,1-3.924.12c-1.749-.064-3.494.043-5.242.069-.831.012-1.662,0-2.49,0" transform="translate(3016.341 287.545)" fill="#fff"/>
    <path id="Path_971" data-name="Path 971" d="M163.267,177.732c0-.836.008-1.588-.005-2.34,0-.242.072-.377.314-.411.406-.057.812-.109,1.216-.175.342-.056.473.058.47.421-.015,1.72,0,3.439-.013,5.159a7.9,7.9,0,0,0,.249,1.639c.063.314-.017.478-.36.493a4.78,4.78,0,0,0-.866.1c-.376.087-.582-.033-.652-.408a1.384,1.384,0,0,0-.084-.21,2.26,2.26,0,0,1-2.127.65,2.4,2.4,0,0,1-2.009-2.206,3.423,3.423,0,0,1,.279-2.013,2.208,2.208,0,0,1,3.307-.908c.074.05.143.107.281.21m.013,2.251a.968.968,0,0,0-1.08-1.1,1,1,0,0,0-.958,1.089,1.024,1.024,0,0,0,.953,1.1.948.948,0,0,0,1.086-1.088" transform="translate(3000.486 210.169)" fill="#fff"/>
    <path id="Path_972" data-name="Path 972" d="M295.1,180.22c0-.993,0-1.985,0-2.978,0-.481.051-.535.518-.536,1.431,0,2.861.009,4.291-.008.34,0,.444.134.443.437,0,.264.008.529.026.793.022.3-.1.433-.414.428-.781-.011-1.563.009-2.344-.01-.287-.007-.389.053-.38.364.021.7,0,.7.718.7.477,0,.954.009,1.43,0,.269-.007.392.1.384.37-.009.3-.012.609,0,.913.011.276-.111.375-.379.371-.609-.01-1.219.005-1.827-.007-.226,0-.324.034-.325.3,0,.788-.017.788.779.788.715,0,1.43,0,2.145,0,.47,0,.555.1.5.57-.118,1.087-.118,1.087-1.225,1.087h-3.814c-.484,0-.53-.042-.531-.516,0-1.019,0-2.038,0-3.057" transform="translate(2909.755 208.896)" fill="#fff"/>
    <path id="Path_973" data-name="Path 973" d="M206.37,176.717a12.2,12.2,0,0,1,1.907.081,2.513,2.513,0,0,1,2.185,2.681A2.559,2.559,0,0,1,208.1,181.9a9.708,9.708,0,0,1-1.466.04c-.224,0-.3.062-.291.289.016.409,0,.82.006,1.23,0,.242-.088.363-.353.355-.476-.014-.953-.012-1.429,0-.246.006-.37-.074-.37-.336q.006-3.155,0-6.309c0-.31.151-.454.468-.449.529.009,1.059,0,1.7,0m-.02,2.654c0,1.067,0,1.067,1.013,1.015a1.024,1.024,0,0,0,1.053-1.052.982.982,0,0,0-1.058-.946c-1.008-.036-1.008-.036-1.008.983" transform="translate(2970.514 208.885)" fill="#fff"/>
    <path id="Path_974" data-name="Path 974" d="M255.377,185.58c.269-.975.552-1.945.8-2.925a.563.563,0,0,1,.662-.51c.356.022.715,0,1.072-.006.293-.007.435.094.321.406-.684,1.871-1.29,3.771-2.043,5.616a2.14,2.14,0,0,1-2.631,1.365.415.415,0,0,1-.386-.339c-.049-.273-.105-.546-.142-.82-.033-.241.106-.338.332-.326a1.5,1.5,0,0,1,.191.048c.709.137.961-.013,1.229-.773-.572.115-.719-.264-.863-.686-.441-1.285-.9-2.563-1.356-3.845-.168-.478-.131-.535.378-.6.328-.041.658-.066.985-.108a.452.452,0,0,1,.569.4c.254,1.035.529,2.065.8,3.1l.088.009" transform="translate(2938.249 205.306)" fill="#fff"/>
    <path id="Path_975" data-name="Path 975" d="M238.072,186.652a2.651,2.651,0,0,1-2.149.712,1.5,1.5,0,0,1-1.449-1.238,1.568,1.568,0,0,1,.807-1.776,2.864,2.864,0,0,1,2.121-.2c.136.034.262.129.415.091a.837.837,0,0,0-.746-.778,2.487,2.487,0,0,0-1.4.181c-.371.153-.547.029-.634-.326-.028-.115-.071-.227-.107-.34-.214-.661-.168-.752.518-.936a5.174,5.174,0,0,1,2.392-.165,2.251,2.251,0,0,1,1.919,2.314,8.333,8.333,0,0,0,.237,2.515c.1.318-.044.467-.367.49a4.248,4.248,0,0,0-.825.107c-.4.111-.6-.031-.66-.426a1.627,1.627,0,0,0-.072-.227m-1.239-.6a1.1,1.1,0,0,0,.793-.295c.183-.183.257-.338-.078-.437a1.894,1.894,0,0,0-.771-.131c-.28.034-.548.121-.524.464s.293.4.58.4" transform="translate(2950.305 205.485)" fill="#fff"/>
    <path id="Path_976" data-name="Path 976" d="M143.831,184.269a.923.923,0,0,0-.814-.817,2.675,2.675,0,0,0-1.4.2c-.3.115-.46.059-.573-.255-.412-1.15-.393-1.193.8-1.455a4.281,4.281,0,0,1,2.273.018,2.178,2.178,0,0,1,1.618,2.227,8.3,8.3,0,0,0,.237,2.515c.1.315-.036.471-.362.494a4.353,4.353,0,0,0-.825.106c-.4.109-.606-.02-.663-.421a1.6,1.6,0,0,0-.071-.224,2.677,2.677,0,0,1-2.147.707,1.5,1.5,0,0,1-1.452-1.235,1.567,1.567,0,0,1,.8-1.779,2.826,2.826,0,0,1,2.12-.2c.137.036.273.074.453.122m-.993,1.777a1.164,1.164,0,0,0,.636-.187c.129-.095.292-.2.285-.357-.009-.188-.231-.17-.368-.226a1.263,1.263,0,0,0-.657-.09c-.267.037-.514.127-.5.447.016.339.278.409.6.413" transform="translate(3013.147 205.491)" fill="#fff"/>
    <path id="Path_977" data-name="Path 977" d="M365.433,187.376a2.75,2.75,0,0,1-2.665-1.523,2.809,2.809,0,0,1,.326-3.065,3.3,3.3,0,0,1,4.1-.524,2.8,2.8,0,0,1-1.763,5.111m-1.072-2.8a1.1,1.1,0,0,0,1.07,1.188,1.129,1.129,0,0,0,1.1-1.174,1.142,1.142,0,0,0-1.081-1.192,1.109,1.109,0,0,0-1.084,1.179" transform="translate(2864.734 205.495)" fill="#fff"/>
    <path id="Path_978" data-name="Path 978" d="M125.7,185.014c-.424,0-.848,0-1.272,0-.085,0-.2-.04-.243.067s.035.175.091.248a1.05,1.05,0,0,0,.85.435,3.87,3.87,0,0,0,1.367-.2c.325-.112.547-.059.595.325a.265.265,0,0,0,.013.037c.267.97.2,1.1-.788,1.326a4.318,4.318,0,0,1-2.161-.019,2.659,2.659,0,0,1-1.936-2.984A2.613,2.613,0,0,1,124.7,181.8a3.433,3.433,0,0,1,1.373.138,2.269,2.269,0,0,1,1.53,2.669c-.036.294-.276.4-.555.4-.451,0-.9,0-1.351,0m-.621-1c.2,0,.4.009.593,0,.091-.006.226.072.268-.075a.354.354,0,0,0-.094-.292.982.982,0,0,0-1.539.07c-.052.071-.141.147-.1.242.043.114.161.052.243.056.211.009.422,0,.633,0" transform="translate(3025.321 205.494)" fill="#fff"/>
    <path id="Path_979" data-name="Path 979" d="M398.906,185.012c-.45,0-.9,0-1.351,0-.225,0-.258.089-.146.259a1.035,1.035,0,0,0,.859.492,3.813,3.813,0,0,0,1.406-.2c.33-.114.5-.029.6.333.262,1.011.191,1.159-.83,1.37a4.287,4.287,0,0,1-2.275-.078,2.685,2.685,0,0,1-1.772-2.984,2.615,2.615,0,0,1,2.491-2.4,3.338,3.338,0,0,1,1.411.151,2.273,2.273,0,0,1,1.483,2.664c-.036.292-.282.395-.561.4-.437,0-.874,0-1.312,0m-1.553-1c.512,0,.986,0,1.459,0,.1,0,.235.058.289-.045.069-.13-.026-.253-.108-.357a.98.98,0,0,0-1.64.4" transform="translate(2842.735 205.496)" fill="#fff"/>
    <path id="Path_980" data-name="Path 980" d="M152.112,78.347a6.793,6.793,0,0,1-7.127,2.312c-2.155-.63-4.3-1.3-6.443-1.963-.1-.03-.283-.029-.249-.191.026-.125.181-.068.279-.072a53.984,53.984,0,0,1,8.2.323,12.278,12.278,0,0,0,5.337-.409" transform="translate(3014.568 274.633)" fill="#fff"/>
    <path id="Path_981" data-name="Path 981" d="M316.063,186.054c-.233.371-.446.689-.635,1.02a.506.506,0,0,1-.508.293c-.463-.016-.927,0-1.391,0-.118,0-.251.024-.314-.11s.045-.224.115-.314c.486-.627.967-1.259,1.469-1.874a.343.343,0,0,0,0-.51c-.466-.609-.914-1.232-1.362-1.855-.256-.356-.207-.462.228-.521.354-.048.71-.08,1.064-.131a.586.586,0,0,1,.661.314c.211.366.449.716.7,1.112.245-.372.483-.716.7-1.073a.545.545,0,0,1,.523-.286c.41.006.821,0,1.232,0,.141,0,.313-.047.4.112.091.178-.067.293-.158.414-.443.594-.87,1.2-1.345,1.768-.223.266-.175.428.015.667.469.59.915,1.2,1.365,1.8.082.11.225.217.138.382-.078.146-.233.1-.36.1-.437,0-.874-.011-1.311.006a.543.543,0,0,1-.524-.28c-.215-.333-.441-.658-.695-1.034" transform="translate(2897.661 205.327)" fill="#fff"/>
    <path id="Path_982" data-name="Path 982" d="M224.813,178.32c0-.94.017-1.88-.009-2.819-.01-.35.129-.467.445-.5.341-.035.679-.105,1.019-.156.458-.068.547.006.547.464q0,2.68,0,5.36c0,.3.006.553.425.41a.206.206,0,0,1,.185.033,2.133,2.133,0,0,1,.255,1.061c.016.223-.211.308-.4.386a1.657,1.657,0,0,1-2.465-1.619q0-1.31,0-2.621" transform="translate(2956.743 210.149)" fill="#fff"/>
    <path id="Path_983" data-name="Path 983" d="M352.651,178.29c0-.94.014-1.88-.008-2.819-.007-.312.111-.425.4-.459.367-.044.731-.116,1.1-.168.432-.061.515.013.515.459q0,2.681,0,5.361c0,.291-.015.563.417.418a.209.209,0,0,1,.185.029,2.211,2.211,0,0,1,.265,1.018c.038.233-.172.332-.358.416a1.666,1.666,0,0,1-2.509-1.595q0-1.33,0-2.66" transform="translate(2871.294 210.147)" fill="#fff"/>
    <path id="Path_984" data-name="Path 984" d="M384.084,182.553a1.612,1.612,0,0,1,1.845-.746.457.457,0,0,1,.353.632c-.1.355-.211.708-.306,1.064a.341.341,0,0,1-.508.264.982.982,0,0,0-.582-.049c-.331.087-.552.224-.533.646.037.778,0,1.56.015,2.34.006.317-.087.462-.429.442a9.33,9.33,0,0,0-1.23,0c-.37.027-.455-.143-.45-.466.011-.741-.013-1.481.008-2.221a11.1,11.1,0,0,0-.254-2.159c-.044-.26,0-.4.3-.423a8,8,0,0,0,1.019-.148c.392-.084.612.033.654.447a2.55,2.55,0,0,0,.1.377" transform="translate(2851.674 205.549)" fill="#fff"/>
    <path id="Path_985" data-name="Path 985" d="M156.87,12.245a6.3,6.3,0,0,1-1.014,3.335,8.939,8.939,0,0,1-5.712,3.773,10.524,10.524,0,0,1-2.489.289,54.172,54.172,0,0,0,5.077-3.014,32.808,32.808,0,0,0,4.138-4.382" transform="translate(3008.308 318.815)" fill="#fff"/>
    <path id="Path_986" data-name="Path 986" d="M186.96,184.87a1.465,1.465,0,0,1,1.642,1.518,1.516,1.516,0,0,1-1.594,1.6,1.552,1.552,0,0,1-1.71-1.61,1.483,1.483,0,0,1,1.662-1.5" transform="translate(2983.147 203.434)" fill="#fff"/>
    <path id="Path_987" data-name="Path 987" d="M277.868,184.87A1.464,1.464,0,0,1,279.5,186.4a1.516,1.516,0,0,1-1.6,1.588,1.551,1.551,0,0,1-1.7-1.578,1.483,1.483,0,0,1,1.67-1.537" transform="translate(2922.39 203.434)" fill="#fff"/>
    <path id="Path_988" data-name="Path 988" d="M201.119,34.772l.04-.051c0,.016.007.033.01.049l-.056-.008.006.009" transform="translate(2972.577 303.793)" fill="#fff"/>
    <path id="Path_989" data-name="Path 989" d="M127.178,92.5l-.025.008,0-.019Z" transform="translate(3022.011 265.184)" fill="#fff"/>
    <path id="Path_990" data-name="Path 990" d="M22.619,79.98a.31.31,0,0,1-.036.015c-.005,0-.013,0-.019-.007h.062l-.006-.008" transform="translate(3091.918 273.542)" fill="#fff"/>
  </g>
</svg>
