<svg xmlns="http://www.w3.org/2000/svg" width="26.736" height="34.027" viewBox="0 0 26.736 34.027">
  <g id="Layer_2" data-name="Layer 2" transform="translate(-5 -2)" style="mix-blend-mode: normal;isolation: isolate">
    <path id="Path_521" data-name="Path 521" d="M18.368,36.027a1.215,1.215,0,0,0,.753-.267c.462-.413,12.614-10.208,12.614-20.392A13.368,13.368,0,1,0,5,15.368C5,25.552,17.153,35.347,17.614,35.76A1.215,1.215,0,0,0,18.368,36.027ZM7.431,15.368a10.937,10.937,0,1,1,21.875,0c0,7.656-8.349,15.567-10.937,17.852C15.779,30.935,7.431,23.024,7.431,15.368Z" transform="translate(0 0)" fill="#fff"/>
    <path id="Path_522" data-name="Path 522" d="M23.153,14.076a6.076,6.076,0,1,0-6.076,6.076,6.076,6.076,0,0,0,6.076-6.076Zm-9.722,0a3.646,3.646,0,1,1,3.646,3.646A3.646,3.646,0,0,1,13.431,14.076Z" transform="translate(1.292 1.292)" fill="#fff"/>
  </g>
</svg>
