<svg xmlns="http://www.w3.org/2000/svg" width="26.862" height="26.813" viewBox="0 0 26.862 26.813">
  <g id="Group_707" data-name="Group 707" style="mix-blend-mode: normal;isolation: isolate">
    <path id="Path_523" data-name="Path 523" d="M21.05,18.806a2.68,2.68,0,0,0-3.8,0l-1.3,1.3a23.354,23.354,0,0,1-4.029-3.234,23.782,23.782,0,0,1-3.234-4.029l1.3-1.3a2.68,2.68,0,0,0,0-3.8L7.461,5.226A2.618,2.618,0,0,0,5.576,4.44h0a2.68,2.68,0,0,0-1.9.786L2.458,6.432a5.691,5.691,0,0,0-1.465,4.69c.286,3.35,2.484,7.38,5.87,10.775s7.46,5.584,10.81,5.905a7.031,7.031,0,0,0,.75,0,5.423,5.423,0,0,0,3.94-1.465l1.206-1.215a2.68,2.68,0,0,0,.786-1.9,2.618,2.618,0,0,0-.786-1.885Zm1.26,5.057-1.215,1.206a4.083,4.083,0,0,1-3.27.893c-2.9-.25-6.6-2.305-9.658-5.36S3.057,13.874,2.78,10.97A4.047,4.047,0,0,1,3.673,7.7l1.26-1.215a.893.893,0,0,1,.634-.259h0a.893.893,0,0,1,.634.259L8.73,9.041a.893.893,0,0,1,0,1.26L6.943,12.087A.893.893,0,0,0,6.8,13.168a24.56,24.56,0,0,0,3.868,4.985,24.56,24.56,0,0,0,4.985,3.868.893.893,0,0,0,1.081-.143l1.787-1.787a.893.893,0,0,1,1.26,0l2.528,2.528h0a.873.873,0,0,1,0,1.242Zm1.555-18.94A13.33,13.33,0,0,0,14.394,1a.893.893,0,0,0,0,1.787A11.614,11.614,0,0,1,26.009,14.5a.893.893,0,0,0,.893.893h0A.893.893,0,0,0,27.8,14.5a13.321,13.321,0,0,0-3.931-9.577Z" transform="translate(-0.934 -1)" fill="#fff"/>
    <path id="Path_524" data-name="Path 524" d="M20.353,10.706a5.36,5.36,0,0,1,1.581,3.851.893.893,0,0,0,.893.893h0a.893.893,0,0,0,.893-.893A7.147,7.147,0,0,0,16.573,7.32a.893.893,0,1,0,0,1.787,5.361,5.361,0,0,1,3.779,1.6Z" transform="translate(-2.506 -1.674)" fill="#fff"/>
  </g>
</svg>
