<svg xmlns="http://www.w3.org/2000/svg" xmlns:xlink="http://www.w3.org/1999/xlink" width="71.959" height="76.491" viewBox="0 0 71.959 76.491">
  <defs>
    <clipPath id="clip-path">
      <rect id="Rectangle_764" data-name="Rectangle 764" width="71.959" height="76.491" transform="translate(0 0)" fill="#ea881d"/>
    </clipPath>
  </defs>
  <g id="Group_1070" data-name="Group 1070" transform="translate(0 0)" opacity="0.5">
    <g id="Group_961" data-name="Group 961" clip-path="url(#clip-path)">
      <path id="Path_899" data-name="Path 899" d="M65.05,74.248l-.023,0a14.869,14.869,0,0,1-7.7-1.659,23.34,23.34,0,0,1-5.278-3.2,35.811,35.811,0,0,0,2.643,3.261.346.346,0,0,1-.312.571,14.05,14.05,0,0,1-7.611-4.077c-2.112-2.364-3.041-4.263-2.926-5.978.155-2.312,2.165-4.029,4.711-6.205l1.7-1.47c2.108-1.842,3.928-3.431,5.863-3.836,2.131-.447,4.216.611,6.56,3.328,1.553,1.806,3.289,6.178,3.027,8.519a.345.345,0,0,1-.242.291.338.338,0,0,1-.363-.1c-.124-.143-.25-.3-.388-.465a14.543,14.543,0,0,0-2.279-2.335,14.637,14.637,0,0,1,2.4,5.336c1.323,5.238.516,7.7.479,7.8a.344.344,0,0,1-.256.226M50.726,67.5a.343.343,0,0,1,.285.068c.245.193.478.4.736.64a20.589,20.589,0,0,0,5.872,3.766,15.03,15.03,0,0,0,7.089,1.618c.153-.683.5-3.028-.551-7.195A13.306,13.306,0,0,0,60.6,59.805l-.238-.256a.344.344,0,0,1,.41-.54,12.894,12.894,0,0,1,4.249,3.5,15.3,15.3,0,0,0-2.867-7.08c-2.192-2.541-4.008-3.5-5.9-3.1-1.756.368-3.515,1.9-5.551,3.681L49,57.486c-2.423,2.07-4.336,3.705-4.472,5.725-.1,1.519.772,3.258,2.752,5.474a13.151,13.151,0,0,0,6.2,3.634,15.5,15.5,0,0,1-3.016-4.4.348.348,0,0,1,.263-.425" fill="#ea881d"/>
      <path id="Path_900" data-name="Path 900" d="M70.867,45.555a3.3,3.3,0,0,1-1.557-.132,14.782,14.782,0,0,1-1.542-.57,11.993,11.993,0,0,0-7.347-1.1A14.206,14.206,0,0,0,54.194,47.1a.346.346,0,0,1-.485-.032L42.647,34.527a.345.345,0,0,1,.18-.565l.116-.025c1.79-.375,17.805-3.288,28.888,9.575a.324.324,0,0,1,.072.14,1.835,1.835,0,0,1-.164,1.325,1.3,1.3,0,0,1-.872.578M60.28,43.073a12.575,12.575,0,0,1,7.747,1.141,14.5,14.5,0,0,0,1.467.545c.864.24,1.444.195,1.662-.148a1.133,1.133,0,0,0,.094-.716C61.1,32.18,46.735,33.956,43.562,34.52L54,46.359a14.627,14.627,0,0,1,6.277-3.286" fill="#ea881d"/>
      <path id="Path_901" data-name="Path 901" d="M35.037,76.458h0a1.99,1.99,0,0,1-1.077-.113.342.342,0,0,1-.129-.093c-11.555-13.409-5.218-29.934-5.154-30.1a.352.352,0,0,1,.266-.213.344.344,0,0,1,.32.118l10.767,12.8a.343.343,0,0,1-.04.483C33.854,64.625,35,69.32,35.76,72.426a14.892,14.892,0,0,1,.337,1.615c.219,1.769-.456,2.29-1.06,2.417m-.742-.726a1.268,1.268,0,0,0,.6.051c.582-.122.6-.969.516-1.658a14.379,14.379,0,0,0-.323-1.535c-.74-3.029-1.972-8.073,4.195-13.551L29.125,46.964c-.973,2.958-4.848,17.07,5.17,28.768" fill="#ea881d"/>
      <path id="Path_902" data-name="Path 902" d="M41.056,60.726a.354.354,0,0,1-.171-.007C33.454,58.474,25.116,54.7,14.505,42.39A68.9,68.9,0,0,1,3.686,25.137a.343.343,0,0,1,.09-.4L25.333,6.17a.348.348,0,0,1,.409-.031A68.766,68.766,0,0,1,41.2,19.39C51.812,31.7,54.31,40.506,55.427,48.185a.342.342,0,0,1-.115.311L41.209,60.65a.33.33,0,0,1-.153.076M4.419,25.093a68.229,68.229,0,0,0,10.61,16.846C25.436,54.016,33.617,57.781,40.9,60L54.718,48.1C53.6,40.567,51.086,31.92,40.678,19.841A67.963,67.963,0,0,0,25.589,6.861ZM26.983,37.186A9.881,9.881,0,1,1,31.394,35a9.884,9.884,0,0,1-4.411,2.182M23.061,18.53a9.187,9.187,0,1,0,7.882,15.95,9.186,9.186,0,0,0-7.882-15.95" fill="#ea881d"/>
      <path id="Path_903" data-name="Path 903" d="M42.88,62.952a.785.785,0,0,1-.753-.254L40.8,61.158a.786.786,0,0,1,.08-1.1l13.9-11.974a.8.8,0,0,1,1.1.085l1.327,1.54a.765.765,0,0,1,.188.56.785.785,0,0,1-.265.54L43.228,62.78a.766.766,0,0,1-.348.172M55.269,48.585,41.332,60.578a.094.094,0,0,0-.009.131l1.327,1.538a.084.084,0,0,0,.124.012l13.9-11.975.008-.129-1.327-1.541a.092.092,0,0,0-.088-.029" fill="#ea881d"/>
      <path id="Path_904" data-name="Path 904" d="M26.608,35.382A8.027,8.027,0,1,1,30.2,33.607a8.05,8.05,0,0,1-3.592,1.775m-3.17-15.05a7.349,7.349,0,1,0,7.074,2.395,7.328,7.328,0,0,0-7.074-2.395" fill="#ea881d"/>
      <path id="Path_905" data-name="Path 905" d="M26.982,37.186h0A9.881,9.881,0,1,1,31.393,35a9.881,9.881,0,0,1-4.411,2.182M23.06,18.53a9.188,9.188,0,0,0,3.78,17.982h0A9.194,9.194,0,0,0,34.109,28.2,9.189,9.189,0,0,0,23.06,18.53m3.309,15.717a6.868,6.868,0,1,1,3.072-1.517,6.882,6.882,0,0,1-3.072,1.517m-2.692-12.78a6.188,6.188,0,1,0,5.958,2.017,6.188,6.188,0,0,0-5.958-2.017" fill="#ea881d"/>
      <path id="Path_906" data-name="Path 906" d="M26.369,34.247a6.868,6.868,0,1,1,3.072-1.517,6.882,6.882,0,0,1-3.072,1.517m-2.692-12.78a6.188,6.188,0,1,0,5.958,2.017,6.188,6.188,0,0,0-5.958-2.017" fill="#ea881d"/>
      <path id="Path_907" data-name="Path 907" d="M4.071,25.337a.332.332,0,0,1-.147,0,.347.347,0,0,1-.238-.2C-2.283,11.566.287,3.3,2.465,1.423A6.09,6.09,0,0,1,5.16.259C7.145-.156,14.494-.96,25.742,6.14a.354.354,0,0,1,.161.267.349.349,0,0,1-.12.287L4.226,25.261a.347.347,0,0,1-.155.076M5.3.933A5.417,5.417,0,0,0,2.917,1.945C.967,3.624-1.388,11.593,4.13,24.432L24.979,6.477C14.176-.219,7.2.537,5.3.933" fill="#ea881d"/>
      <path id="Path_908" data-name="Path 908" d="M4.071,25.337a.332.332,0,0,1-.147,0,.342.342,0,0,1-.238-.2c-.312-.7-.6-1.4-.861-2.077a.344.344,0,0,1,.1-.386l20.5-17.655a.346.346,0,0,1,.4-.037c.633.363,1.274.746,1.926,1.158a.353.353,0,0,1,.161.267.349.349,0,0,1-.119.286L4.226,25.26a.344.344,0,0,1-.155.077m-.514-2.3q.271.69.574,1.394L24.979,6.476c-.437-.27-.868-.526-1.3-.774Z" fill="#ea881d"/>
      <path id="Path_909" data-name="Path 909" d="M52.813,61.251a.848.848,0,0,1-.808-.27l-1.07-1.213L38.45,47.383a2.371,2.371,0,0,1-.1-3.2.881.881,0,0,1,.181-.216l.71-.612a.932.932,0,0,1,.211-.137,1.386,1.386,0,0,1,.334-.116,2.372,2.372,0,0,1,2.811.7L53.042,58.036l.98,1.165a.915.915,0,0,1-.108,1.239l-.716.616a.866.866,0,0,1-.385.195M40.429,43.626a2.319,2.319,0,0,0-.4.127c-.079.034-.2.052-.267.085l-.772.647c0,.009-.07.094-.076.1a1.694,1.694,0,0,0,.042,2.326l12.479,12.38,1.093,1.235a.156.156,0,0,0,.214.012l.7-.609c0-.011.071-.1.075-.11a.159.159,0,0,0-.023-.172l-1-1.19L42.06,44.233a1.628,1.628,0,0,0-1.631-.607" fill="#ea881d"/>
    </g>
  </g>
</svg>
