<svg xmlns="http://www.w3.org/2000/svg" xmlns:xlink="http://www.w3.org/1999/xlink" width="69.385" height="68.982" viewBox="0 0 69.385 68.982">
  <defs>
    <clipPath id="clip-path">
      <rect id="Rectangle_767" data-name="Rectangle 767" width="69.385" height="68.982" fill="#10adbe"/>
    </clipPath>
  </defs>
  <g id="Group_1568" data-name="Group 1568" transform="translate(0 0)" opacity="0.89">
    <g id="Group_968" data-name="Group 968" transform="translate(0 0)">
      <g id="Group_967" data-name="Group 967" transform="translate(0 0)" clip-path="url(#clip-path)">
        <path id="Path_912" data-name="Path 912" d="M29.5,68.982h0a3.017,3.017,0,0,1-.51-.042c-3.057-.515-4.483-5.824-5.147-10.418-2.832,1.828-6.552,3.855-9.087,3.855a3.552,3.552,0,0,1-2.333-.762c-2.4-1.98-.95-7.3.8-11.611-.911.043-1.741.061-2.53.061-5.265,0-8.081-.966-8.864-3.043-1.1-2.92,2.828-6.817,6.514-9.695-4.182-2.1-8.8-5.161-8.3-8.244s5.872-4.532,10.518-5.208c-2.547-3.915-5-8.88-3.028-11.294a4.164,4.164,0,0,1,3.415-1.319c2.4,0,5.738,1.074,8.287,2.057-.237-4.7.144-10.265,3.073-11.369a3.2,3.2,0,0,1,1.123-.2c2.7,0,6.1,3.506,8.592,6.633C34.032,4.449,36.957,0,39.891,0A3.734,3.734,0,0,1,40.4.042c3.054.513,4.48,5.826,5.142,10.415,2.834-1.825,6.555-3.847,9.082-3.847a3.579,3.579,0,0,1,2.333.76c2.4,1.982.954,7.3-.793,11.614.868-.044,1.72-.066,2.536-.066,5.254,0,8.065.962,8.849,3.038,1.1,2.92-2.824,6.826-6.507,9.7,4.182,2.1,8.807,5.165,8.306,8.247s-5.872,4.531-10.522,5.207c2.548,3.913,5,8.881,3.03,11.288a4.191,4.191,0,0,1-3.414,1.321c-2.417,0-5.749-1.074-8.287-2.055.233,4.7-.148,10.261-3.081,11.365a3.138,3.138,0,0,1-1.122.2c-2.692,0-6.092-3.505-8.584-6.63-2.018,3.938-4.946,8.381-7.872,8.383m-5.384-11.4a.338.338,0,0,1,.145.03.356.356,0,0,1,.2.273c.488,3.664,1.74,9.879,4.641,10.369a2.958,2.958,0,0,0,.4.03c2.1,0,4.761-3.015,7.493-8.483a.355.355,0,0,1,.279-.193.35.35,0,0,1,.312.131c1.98,2.542,5.7,6.795,8.372,6.795a2.4,2.4,0,0,0,.874-.159c2.789-1.048,2.825-7.475,2.6-11.214a.33.33,0,0,1,.145-.3.34.34,0,0,1,.335-.048c2.072.824,5.937,2.206,8.539,2.206a3.529,3.529,0,0,0,2.869-1.062c1.386-1.7.188-5.577-3.374-10.923a.344.344,0,0,1-.027-.338.362.362,0,0,1,.272-.206c3.709-.495,10-1.762,10.475-4.7s-5.077-6.116-8.428-7.751a.355.355,0,0,1-.2-.282.341.341,0,0,1,.137-.309c2.959-2.266,7.767-6.473,6.722-9.247-.666-1.763-3.268-2.584-8.192-2.584-.975,0-2,.03-3.05.1a.321.321,0,0,1-.308-.147.353.353,0,0,1-.039-.338c1.43-3.424,3.488-9.44,1.206-11.318a2.87,2.87,0,0,0-1.885-.6c-2.625,0-6.867,2.53-9.162,4.038a.341.341,0,0,1-.337.025.355.355,0,0,1-.2-.271C44.438,7.437,43.187,1.223,40.287.736a2.566,2.566,0,0,0-.4-.035c-2.1,0-4.767,3.013-7.5,8.489a.348.348,0,0,1-.279.193.352.352,0,0,1-.31-.133c-1.981-2.538-5.706-6.8-8.379-6.8a2.61,2.61,0,0,0-.878.155c-2.781,1.049-2.818,7.475-2.591,11.214a.351.351,0,0,1-.145.307.355.355,0,0,1-.335.042c-2.078-.824-5.949-2.2-8.536-2.2a3.514,3.514,0,0,0-2.872,1.06c-1.87,2.293,1.312,7.828,3.375,10.927a.347.347,0,0,1,.029.338.36.36,0,0,1-.273.206c-3.708.495-9.994,1.76-10.472,4.7S5.8,35.309,9.154,36.947a.356.356,0,0,1,.195.281.339.339,0,0,1-.136.31c-5.111,3.906-7.5,7.183-6.727,9.238.666,1.772,3.274,2.591,8.206,2.591.931,0,1.925-.032,3.046-.1a.38.38,0,0,1,.3.147.366.366,0,0,1,.036.344c-1.43,3.416-3.489,9.436-1.21,11.316a2.884,2.884,0,0,0,1.885.6c2.632,0,6.874-2.532,9.167-4.041a.342.342,0,0,1,.193-.058" transform="translate(0 0)" fill="#10adbe"/>
        <path id="Path_913" data-name="Path 913" d="M33.709,58.555A24.47,24.47,0,0,1,10.043,27.787,24.489,24.489,0,0,1,33.662,9.608a24.473,24.473,0,0,1,.047,48.947M33.662,10.31A23.773,23.773,0,1,0,54.248,22.166,23.742,23.742,0,0,0,33.662,10.31" transform="translate(0.169 0.176)" fill="#10adbe"/>
        <path id="Path_914" data-name="Path 914" d="M34.561,39.96h0A6.375,6.375,0,0,1,28.5,35.652a.343.343,0,0,1,.024-.286.353.353,0,0,1,.232-.171,26.923,26.923,0,0,0,10.83-5,.356.356,0,0,1,.277-.064.369.369,0,0,1,.237.162l.1.163a6.425,6.425,0,0,1-5.634,9.505M29.3,35.789a5.319,5.319,0,0,0,.231.486A5.726,5.726,0,0,0,39.688,31,28.5,28.5,0,0,1,36.4,33.1a27.553,27.553,0,0,1-7.1,2.685" transform="translate(0.523 0.553)" fill="#10adbe"/>
        <path id="Path_915" data-name="Path 915" d="M23.435,33.027a.349.349,0,0,1-.321-.211,3.557,3.557,0,0,1,1.6-4.485c1.259-.63,3.111-.42,4.53,2.052a.35.35,0,1,1-.609.346c-1.175-2.049-2.636-2.26-3.608-1.774a2.846,2.846,0,0,0-1.267,3.586.344.344,0,0,1-.183.456.317.317,0,0,1-.138.03" transform="translate(0.419 0.514)" fill="#10adbe"/>
        <path id="Path_916" data-name="Path 916" d="M35.936,27.942a.341.341,0,0,1-.319-.213A3.252,3.252,0,0,1,37.2,23.553c1.267-.641,3.216-.564,4.538,1.743a.353.353,0,0,1-.131.479.347.347,0,0,1-.478-.129c-1.078-1.884-2.574-1.992-3.613-1.466a2.555,2.555,0,0,0-1.263,3.272.35.35,0,0,1-.18.461.36.36,0,0,1-.142.03" transform="translate(0.649 0.426)" fill="#10adbe"/>
      </g>
    </g>
  </g>
</svg>
