<svg id="Group_1546" data-name="Group 1546" xmlns="http://www.w3.org/2000/svg" width="40.936" height="40.936" viewBox="0 0 40.936 40.936">
  <path id="Path_1792" data-name="Path 1792" d="M149.1,40.936H122.781a7.31,7.31,0,0,1-7.31-7.31V7.31A7.31,7.31,0,0,1,122.781,0H149.1a7.31,7.31,0,0,1,7.31,7.31V33.626a7.31,7.31,0,0,1-7.31,7.31" transform="translate(-115.471)" fill="#29a9e1"/>
  <path id="Path_1793" data-name="Path 1793" d="M126.55,29.16a12.726,12.726,0,0,0,19.578-11.3,9.089,9.089,0,0,0,2.233-2.317,8.95,8.95,0,0,1-2.57.7,4.479,4.479,0,0,0,1.967-2.475,8.982,8.982,0,0,1-2.841,1.087,4.477,4.477,0,0,0-7.625,4.081,12.7,12.7,0,0,1-9.223-4.676,4.479,4.479,0,0,0,1.384,5.975,4.461,4.461,0,0,1-2.028-.56,4.48,4.48,0,0,0,3.589,4.445A4.49,4.49,0,0,1,129,24.2a4.478,4.478,0,0,0,4.179,3.108,9,9,0,0,1-6.625,1.852" transform="translate(-116.987 -1.84)" fill="#fff"/>
</svg>
