<svg xmlns="http://www.w3.org/2000/svg" xmlns:xlink="http://www.w3.org/1999/xlink" width="26.282" height="22.996" viewBox="0 0 26.282 22.996">
  <defs>
    <clipPath id="clip-path">
      <rect id="Rectangle_1147" data-name="Rectangle 1147" width="26.282" height="22.996" fill="#fff"/>
    </clipPath>
  </defs>
  <g id="Group_1593" data-name="Group 1593" transform="translate(0 0)">
    <g id="Group_1592" data-name="Group 1592" transform="translate(0 0)" clip-path="url(#clip-path)">
      <path id="Path_7665" data-name="Path 7665" d="M51.213,19.081a7.5,7.5,0,0,1-.494.608c-1.343,1.353-2.7,2.7-4.042,4.048a.867.867,0,0,1-.85.3.817.817,0,0,1-.394-1.375c.473-.494.965-.97,1.448-1.454l1.431-1.434a.637.637,0,0,0,.05-.09h-.309q-3.425,0-6.849,0a.832.832,0,0,1-.935-.878A.8.8,0,0,1,41,18.048c.1-.008.205-.006.308-.006H48.4c-.106-.11-.166-.174-.228-.236q-1.342-1.343-2.686-2.683a.843.843,0,0,1-.253-.908.814.814,0,0,1,1.258-.4,2.118,2.118,0,0,1,.226.208q2.107,2.1,4.211,4.205a2.951,2.951,0,0,1,.28.387Z" transform="translate(-24.931 -8.456)" fill="#fff"/>
      <path id="Path_7666" data-name="Path 7666" d="M9.829,44.352H.976A.848.848,0,0,1,0,43.383q0-1.809,0-3.619a5.2,5.2,0,0,1,4.355-5.195,5.3,5.3,0,0,1,.919-.069q4.581-.007,9.162,0a5.19,5.19,0,0,1,5.2,4.347,5.37,5.37,0,0,1,.071.919c.008,1.215,0,2.429,0,3.644a.839.839,0,0,1-.95.944H9.829M18.068,42.7c0-1.013,0-2,0-2.98a3.554,3.554,0,0,0-3.589-3.577q-4.619-.007-9.236,0a3.554,3.554,0,0,0-3.6,3.594c0,.906,0,1.813,0,2.719V42.7Z" transform="translate(0 -21.357)" fill="#fff"/>
      <path id="Path_7667" data-name="Path 7667" d="M16.964,10.945a5.473,5.473,0,1,1,5.485-5.451,5.482,5.482,0,0,1-5.485,5.451m0-1.643a3.83,3.83,0,1,0-3.831-3.839A3.836,3.836,0,0,0,16.966,9.3" transform="translate(-7.116 0)" fill="#fff"/>
    </g>
  </g>
</svg>
