<svg id="Group_1545" data-name="Group 1545" xmlns="http://www.w3.org/2000/svg" width="40.936" height="40.936" viewBox="0 0 40.936 40.936">
  <g id="Group_1543" data-name="Group 1543" transform="translate(0 0)">
    <path id="Path_1802" data-name="Path 1802" d="M260.912,97.843H234.6a7.31,7.31,0,0,1-7.31-7.31V64.217a7.31,7.31,0,0,1,7.31-7.31h26.316a7.31,7.31,0,0,1,7.31,7.31V90.533a7.31,7.31,0,0,1-7.31,7.31" transform="translate(-227.286 -56.907)" fill="#c3271a"/>
    <g id="Group_1542" data-name="Group 1542" transform="translate(7.768 11.221)">
      <path id="Path_1803" data-name="Path 1803" d="M256.77,70.03a3.177,3.177,0,0,0-2.235-2.25c-1.971-.531-9.875-.531-9.875-.531s-7.9,0-9.876.531a3.178,3.178,0,0,0-2.235,2.25,35.766,35.766,0,0,0,0,12.247,3.176,3.176,0,0,0,2.235,2.249c1.971.532,9.876.532,9.876.532s7.9,0,9.875-.532a3.174,3.174,0,0,0,2.235-2.249,35.768,35.768,0,0,0,0-12.247" transform="translate(-232.021 -67.249)" fill="#fff"/>
      <path id="Path_1804" data-name="Path 1804" d="M247.118,82.494V74.977l6.607,3.758Z" transform="translate(-237.064 -69.831)" fill="#c3271a"/>
    </g>
  </g>
</svg>
